<?xml version="1.0" encoding="utf-8" standalone="no"?>
<!DOCTYPE svg PUBLIC "-//W3C//DTD SVG 1.1//EN"
  "http://www.w3.org/Graphics/SVG/1.1/DTD/svg11.dtd">
<svg xmlns:xlink="http://www.w3.org/1999/xlink" width="748.8pt" height="448.56pt" viewBox="0 0 748.8 448.56" xmlns="http://www.w3.org/2000/svg" version="1.1">
 <metadata>
  <rdf:RDF xmlns:dc="http://purl.org/dc/elements/1.1/" xmlns:cc="http://creativecommons.org/ns#" xmlns:rdf="http://www.w3.org/1999/02/22-rdf-syntax-ns#">
   <cc:Work>
    <dc:type rdf:resource="http://purl.org/dc/dcmitype/StillImage"/>
    <dc:date>2025-06-30T15:05:22.591782</dc:date>
    <dc:format>image/svg+xml</dc:format>
    <dc:creator>
     <cc:Agent>
      <dc:title>Matplotlib v3.5.2, https://matplotlib.org/</dc:title>
     </cc:Agent>
    </dc:creator>
   </cc:Work>
  </rdf:RDF>
 </metadata>
 <defs>
  <style type="text/css">*{stroke-linejoin: round; stroke-linecap: butt}</style>
 </defs>
 <g id="figure_1">
  <g id="patch_1">
   <path d="M 0 448.56 
L 748.8 448.56 
L 748.8 0 
L 0 0 
z
" style="fill: #ffffff"/>
  </g>
  <g id="axes_1">
   <g id="patch_2">
    <path d="M 93.6 303.372342 
L 673.92 303.372342 
L 673.92 53.8272 
L 93.6 53.8272 
z
" style="fill: #ffffff"/>
   </g>
   <g id="matplotlib.axis_1">
    <g id="xtick_1">
     <g id="line2d_1">
      <defs>
       <path id="ma80bec4a27" d="M 0 0 
L 0 3.5 
" style="stroke: #000000; stroke-width: 0.8"/>
      </defs>
      <g>
       <use xlink:href="#ma80bec4a27" x="93.6" y="303.372342" style="stroke: #000000; stroke-width: 0.8"/>
      </g>
     </g>
     <g id="text_1">
      <!-- 0 -->
      <g transform="translate(90.41875 317.97078)scale(0.1 -0.1)">
       <defs>
        <path id="DejaVuSans-30" d="M 2034 4250 
Q 1547 4250 1301 3770 
Q 1056 3291 1056 2328 
Q 1056 1369 1301 889 
Q 1547 409 2034 409 
Q 2525 409 2770 889 
Q 3016 1369 3016 2328 
Q 3016 3291 2770 3770 
Q 2525 4250 2034 4250 
z
M 2034 4750 
Q 2819 4750 3233 4129 
Q 3647 3509 3647 2328 
Q 3647 1150 3233 529 
Q 2819 -91 2034 -91 
Q 1250 -91 836 529 
Q 422 1150 422 2328 
Q 422 3509 836 4129 
Q 1250 4750 2034 4750 
z
" transform="scale(0.015625)"/>
       </defs>
       <use xlink:href="#DejaVuSans-30"/>
      </g>
     </g>
    </g>
    <g id="xtick_2">
     <g id="line2d_2">
      <g>
       <use xlink:href="#ma80bec4a27" x="179.70089" y="303.372342" style="stroke: #000000; stroke-width: 0.8"/>
      </g>
     </g>
     <g id="text_2">
      <!-- 50 -->
      <g transform="translate(173.33839 317.97078)scale(0.1 -0.1)">
       <defs>
        <path id="DejaVuSans-35" d="M 691 4666 
L 3169 4666 
L 3169 4134 
L 1269 4134 
L 1269 2991 
Q 1406 3038 1543 3061 
Q 1681 3084 1819 3084 
Q 2600 3084 3056 2656 
Q 3513 2228 3513 1497 
Q 3513 744 3044 326 
Q 2575 -91 1722 -91 
Q 1428 -91 1123 -41 
Q 819 9 494 109 
L 494 744 
Q 775 591 1075 516 
Q 1375 441 1709 441 
Q 2250 441 2565 725 
Q 2881 1009 2881 1497 
Q 2881 1984 2565 2268 
Q 2250 2553 1709 2553 
Q 1456 2553 1204 2497 
Q 953 2441 691 2322 
L 691 4666 
z
" transform="scale(0.015625)"/>
       </defs>
       <use xlink:href="#DejaVuSans-35"/>
       <use xlink:href="#DejaVuSans-30" x="63.623047"/>
      </g>
     </g>
    </g>
    <g id="xtick_3">
     <g id="line2d_3">
      <g>
       <use xlink:href="#ma80bec4a27" x="265.80178" y="303.372342" style="stroke: #000000; stroke-width: 0.8"/>
      </g>
     </g>
     <g id="text_3">
      <!-- 100 -->
      <g transform="translate(256.25803 317.97078)scale(0.1 -0.1)">
       <defs>
        <path id="DejaVuSans-31" d="M 794 531 
L 1825 531 
L 1825 4091 
L 703 3866 
L 703 4441 
L 1819 4666 
L 2450 4666 
L 2450 531 
L 3481 531 
L 3481 0 
L 794 0 
L 794 531 
z
" transform="scale(0.015625)"/>
       </defs>
       <use xlink:href="#DejaVuSans-31"/>
       <use xlink:href="#DejaVuSans-30" x="63.623047"/>
       <use xlink:href="#DejaVuSans-30" x="127.246094"/>
      </g>
     </g>
    </g>
    <g id="xtick_4">
     <g id="line2d_4">
      <g>
       <use xlink:href="#ma80bec4a27" x="351.902671" y="303.372342" style="stroke: #000000; stroke-width: 0.8"/>
      </g>
     </g>
     <g id="text_4">
      <!-- 150 -->
      <g transform="translate(342.358921 317.97078)scale(0.1 -0.1)">
       <use xlink:href="#DejaVuSans-31"/>
       <use xlink:href="#DejaVuSans-35" x="63.623047"/>
       <use xlink:href="#DejaVuSans-30" x="127.246094"/>
      </g>
     </g>
    </g>
    <g id="xtick_5">
     <g id="line2d_5">
      <g>
       <use xlink:href="#ma80bec4a27" x="438.003561" y="303.372342" style="stroke: #000000; stroke-width: 0.8"/>
      </g>
     </g>
     <g id="text_5">
      <!-- 200 -->
      <g transform="translate(428.459811 317.97078)scale(0.1 -0.1)">
       <defs>
        <path id="DejaVuSans-32" d="M 1228 531 
L 3431 531 
L 3431 0 
L 469 0 
L 469 531 
Q 828 903 1448 1529 
Q 2069 2156 2228 2338 
Q 2531 2678 2651 2914 
Q 2772 3150 2772 3378 
Q 2772 3750 2511 3984 
Q 2250 4219 1831 4219 
Q 1534 4219 1204 4116 
Q 875 4013 500 3803 
L 500 4441 
Q 881 4594 1212 4672 
Q 1544 4750 1819 4750 
Q 2544 4750 2975 4387 
Q 3406 4025 3406 3419 
Q 3406 3131 3298 2873 
Q 3191 2616 2906 2266 
Q 2828 2175 2409 1742 
Q 1991 1309 1228 531 
z
" transform="scale(0.015625)"/>
       </defs>
       <use xlink:href="#DejaVuSans-32"/>
       <use xlink:href="#DejaVuSans-30" x="63.623047"/>
       <use xlink:href="#DejaVuSans-30" x="127.246094"/>
      </g>
     </g>
    </g>
    <g id="xtick_6">
     <g id="line2d_6">
      <g>
       <use xlink:href="#ma80bec4a27" x="524.104451" y="303.372342" style="stroke: #000000; stroke-width: 0.8"/>
      </g>
     </g>
     <g id="text_6">
      <!-- 250 -->
      <g transform="translate(514.560701 317.97078)scale(0.1 -0.1)">
       <use xlink:href="#DejaVuSans-32"/>
       <use xlink:href="#DejaVuSans-35" x="63.623047"/>
       <use xlink:href="#DejaVuSans-30" x="127.246094"/>
      </g>
     </g>
    </g>
    <g id="xtick_7">
     <g id="line2d_7">
      <g>
       <use xlink:href="#ma80bec4a27" x="610.205341" y="303.372342" style="stroke: #000000; stroke-width: 0.8"/>
      </g>
     </g>
     <g id="text_7">
      <!-- 300 -->
      <g transform="translate(600.661591 317.97078)scale(0.1 -0.1)">
       <defs>
        <path id="DejaVuSans-33" d="M 2597 2516 
Q 3050 2419 3304 2112 
Q 3559 1806 3559 1356 
Q 3559 666 3084 287 
Q 2609 -91 1734 -91 
Q 1441 -91 1130 -33 
Q 819 25 488 141 
L 488 750 
Q 750 597 1062 519 
Q 1375 441 1716 441 
Q 2309 441 2620 675 
Q 2931 909 2931 1356 
Q 2931 1769 2642 2001 
Q 2353 2234 1838 2234 
L 1294 2234 
L 1294 2753 
L 1863 2753 
Q 2328 2753 2575 2939 
Q 2822 3125 2822 3475 
Q 2822 3834 2567 4026 
Q 2313 4219 1838 4219 
Q 1578 4219 1281 4162 
Q 984 4106 628 3988 
L 628 4550 
Q 988 4650 1302 4700 
Q 1616 4750 1894 4750 
Q 2613 4750 3031 4423 
Q 3450 4097 3450 3541 
Q 3450 3153 3228 2886 
Q 3006 2619 2597 2516 
z
" transform="scale(0.015625)"/>
       </defs>
       <use xlink:href="#DejaVuSans-33"/>
       <use xlink:href="#DejaVuSans-30" x="63.623047"/>
       <use xlink:href="#DejaVuSans-30" x="127.246094"/>
      </g>
     </g>
    </g>
    <g id="text_8">
     <!-- Residue Index -->
     <g transform="translate(338.137109 333.928436)scale(0.13 -0.13)">
      <defs>
       <path id="DejaVuSans-52" d="M 2841 2188 
Q 3044 2119 3236 1894 
Q 3428 1669 3622 1275 
L 4263 0 
L 3584 0 
L 2988 1197 
Q 2756 1666 2539 1819 
Q 2322 1972 1947 1972 
L 1259 1972 
L 1259 0 
L 628 0 
L 628 4666 
L 2053 4666 
Q 2853 4666 3247 4331 
Q 3641 3997 3641 3322 
Q 3641 2881 3436 2590 
Q 3231 2300 2841 2188 
z
M 1259 4147 
L 1259 2491 
L 2053 2491 
Q 2509 2491 2742 2702 
Q 2975 2913 2975 3322 
Q 2975 3731 2742 3939 
Q 2509 4147 2053 4147 
L 1259 4147 
z
" transform="scale(0.015625)"/>
       <path id="DejaVuSans-65" d="M 3597 1894 
L 3597 1613 
L 953 1613 
Q 991 1019 1311 708 
Q 1631 397 2203 397 
Q 2534 397 2845 478 
Q 3156 559 3463 722 
L 3463 178 
Q 3153 47 2828 -22 
Q 2503 -91 2169 -91 
Q 1331 -91 842 396 
Q 353 884 353 1716 
Q 353 2575 817 3079 
Q 1281 3584 2069 3584 
Q 2775 3584 3186 3129 
Q 3597 2675 3597 1894 
z
M 3022 2063 
Q 3016 2534 2758 2815 
Q 2500 3097 2075 3097 
Q 1594 3097 1305 2825 
Q 1016 2553 972 2059 
L 3022 2063 
z
" transform="scale(0.015625)"/>
       <path id="DejaVuSans-73" d="M 2834 3397 
L 2834 2853 
Q 2591 2978 2328 3040 
Q 2066 3103 1784 3103 
Q 1356 3103 1142 2972 
Q 928 2841 928 2578 
Q 928 2378 1081 2264 
Q 1234 2150 1697 2047 
L 1894 2003 
Q 2506 1872 2764 1633 
Q 3022 1394 3022 966 
Q 3022 478 2636 193 
Q 2250 -91 1575 -91 
Q 1294 -91 989 -36 
Q 684 19 347 128 
L 347 722 
Q 666 556 975 473 
Q 1284 391 1588 391 
Q 1994 391 2212 530 
Q 2431 669 2431 922 
Q 2431 1156 2273 1281 
Q 2116 1406 1581 1522 
L 1381 1569 
Q 847 1681 609 1914 
Q 372 2147 372 2553 
Q 372 3047 722 3315 
Q 1072 3584 1716 3584 
Q 2034 3584 2315 3537 
Q 2597 3491 2834 3397 
z
" transform="scale(0.015625)"/>
       <path id="DejaVuSans-69" d="M 603 3500 
L 1178 3500 
L 1178 0 
L 603 0 
L 603 3500 
z
M 603 4863 
L 1178 4863 
L 1178 4134 
L 603 4134 
L 603 4863 
z
" transform="scale(0.015625)"/>
       <path id="DejaVuSans-64" d="M 2906 2969 
L 2906 4863 
L 3481 4863 
L 3481 0 
L 2906 0 
L 2906 525 
Q 2725 213 2448 61 
Q 2172 -91 1784 -91 
Q 1150 -91 751 415 
Q 353 922 353 1747 
Q 353 2572 751 3078 
Q 1150 3584 1784 3584 
Q 2172 3584 2448 3432 
Q 2725 3281 2906 2969 
z
M 947 1747 
Q 947 1113 1208 752 
Q 1469 391 1925 391 
Q 2381 391 2643 752 
Q 2906 1113 2906 1747 
Q 2906 2381 2643 2742 
Q 2381 3103 1925 3103 
Q 1469 3103 1208 2742 
Q 947 2381 947 1747 
z
" transform="scale(0.015625)"/>
       <path id="DejaVuSans-75" d="M 544 1381 
L 544 3500 
L 1119 3500 
L 1119 1403 
Q 1119 906 1312 657 
Q 1506 409 1894 409 
Q 2359 409 2629 706 
Q 2900 1003 2900 1516 
L 2900 3500 
L 3475 3500 
L 3475 0 
L 2900 0 
L 2900 538 
Q 2691 219 2414 64 
Q 2138 -91 1772 -91 
Q 1169 -91 856 284 
Q 544 659 544 1381 
z
M 1991 3584 
L 1991 3584 
z
" transform="scale(0.015625)"/>
       <path id="DejaVuSans-20" transform="scale(0.015625)"/>
       <path id="DejaVuSans-49" d="M 628 4666 
L 1259 4666 
L 1259 0 
L 628 0 
L 628 4666 
z
" transform="scale(0.015625)"/>
       <path id="DejaVuSans-6e" d="M 3513 2113 
L 3513 0 
L 2938 0 
L 2938 2094 
Q 2938 2591 2744 2837 
Q 2550 3084 2163 3084 
Q 1697 3084 1428 2787 
Q 1159 2491 1159 1978 
L 1159 0 
L 581 0 
L 581 3500 
L 1159 3500 
L 1159 2956 
Q 1366 3272 1645 3428 
Q 1925 3584 2291 3584 
Q 2894 3584 3203 3211 
Q 3513 2838 3513 2113 
z
" transform="scale(0.015625)"/>
       <path id="DejaVuSans-78" d="M 3513 3500 
L 2247 1797 
L 3578 0 
L 2900 0 
L 1881 1375 
L 863 0 
L 184 0 
L 1544 1831 
L 300 3500 
L 978 3500 
L 1906 2253 
L 2834 3500 
L 3513 3500 
z
" transform="scale(0.015625)"/>
      </defs>
      <use xlink:href="#DejaVuSans-52"/>
      <use xlink:href="#DejaVuSans-65" x="64.982422"/>
      <use xlink:href="#DejaVuSans-73" x="126.505859"/>
      <use xlink:href="#DejaVuSans-69" x="178.605469"/>
      <use xlink:href="#DejaVuSans-64" x="206.388672"/>
      <use xlink:href="#DejaVuSans-75" x="269.865234"/>
      <use xlink:href="#DejaVuSans-65" x="333.244141"/>
      <use xlink:href="#DejaVuSans-20" x="394.767578"/>
      <use xlink:href="#DejaVuSans-49" x="426.554688"/>
      <use xlink:href="#DejaVuSans-6e" x="456.046875"/>
      <use xlink:href="#DejaVuSans-64" x="519.425781"/>
      <use xlink:href="#DejaVuSans-65" x="582.902344"/>
      <use xlink:href="#DejaVuSans-78" x="642.675781"/>
     </g>
    </g>
   </g>
   <g id="matplotlib.axis_2">
    <g id="ytick_1">
     <g id="line2d_8">
      <defs>
       <path id="mbb4a23d913" d="M 0 0 
L -3.5 0 
" style="stroke: #000000; stroke-width: 0.8"/>
      </defs>
      <g>
       <use xlink:href="#mbb4a23d913" x="93.6" y="277.233507" style="stroke: #000000; stroke-width: 0.8"/>
      </g>
     </g>
     <g id="text_9">
      <!-- 1 -->
      <g transform="translate(80.2375 281.032725)scale(0.1 -0.1)">
       <use xlink:href="#DejaVuSans-31"/>
      </g>
     </g>
    </g>
    <g id="ytick_2">
     <g id="line2d_9">
      <g>
       <use xlink:href="#mbb4a23d913" x="93.6" y="251.094671" style="stroke: #000000; stroke-width: 0.8"/>
      </g>
     </g>
     <g id="text_10">
      <!-- 2 -->
      <g transform="translate(80.2375 254.89389)scale(0.1 -0.1)">
       <use xlink:href="#DejaVuSans-32"/>
      </g>
     </g>
    </g>
    <g id="ytick_3">
     <g id="line2d_10">
      <g>
       <use xlink:href="#mbb4a23d913" x="93.6" y="224.955836" style="stroke: #000000; stroke-width: 0.8"/>
      </g>
     </g>
     <g id="text_11">
      <!-- 3 -->
      <g transform="translate(80.2375 228.755054)scale(0.1 -0.1)">
       <use xlink:href="#DejaVuSans-33"/>
      </g>
     </g>
    </g>
    <g id="ytick_4">
     <g id="line2d_11">
      <g>
       <use xlink:href="#mbb4a23d913" x="93.6" y="198.817" style="stroke: #000000; stroke-width: 0.8"/>
      </g>
     </g>
     <g id="text_12">
      <!-- 4 -->
      <g transform="translate(80.2375 202.616219)scale(0.1 -0.1)">
       <defs>
        <path id="DejaVuSans-34" d="M 2419 4116 
L 825 1625 
L 2419 1625 
L 2419 4116 
z
M 2253 4666 
L 3047 4666 
L 3047 1625 
L 3713 1625 
L 3713 1100 
L 3047 1100 
L 3047 0 
L 2419 0 
L 2419 1100 
L 313 1100 
L 313 1709 
L 2253 4666 
z
" transform="scale(0.015625)"/>
       </defs>
       <use xlink:href="#DejaVuSans-34"/>
      </g>
     </g>
    </g>
    <g id="ytick_5">
     <g id="line2d_12">
      <g>
       <use xlink:href="#mbb4a23d913" x="93.6" y="172.678165" style="stroke: #000000; stroke-width: 0.8"/>
      </g>
     </g>
     <g id="text_13">
      <!-- 5 -->
      <g transform="translate(80.2375 176.477384)scale(0.1 -0.1)">
       <use xlink:href="#DejaVuSans-35"/>
      </g>
     </g>
    </g>
    <g id="ytick_6">
     <g id="line2d_13">
      <g>
       <use xlink:href="#mbb4a23d913" x="93.6" y="146.539329" style="stroke: #000000; stroke-width: 0.8"/>
      </g>
     </g>
     <g id="text_14">
      <!-- 6 -->
      <g transform="translate(80.2375 150.338548)scale(0.1 -0.1)">
       <defs>
        <path id="DejaVuSans-36" d="M 2113 2584 
Q 1688 2584 1439 2293 
Q 1191 2003 1191 1497 
Q 1191 994 1439 701 
Q 1688 409 2113 409 
Q 2538 409 2786 701 
Q 3034 994 3034 1497 
Q 3034 2003 2786 2293 
Q 2538 2584 2113 2584 
z
M 3366 4563 
L 3366 3988 
Q 3128 4100 2886 4159 
Q 2644 4219 2406 4219 
Q 1781 4219 1451 3797 
Q 1122 3375 1075 2522 
Q 1259 2794 1537 2939 
Q 1816 3084 2150 3084 
Q 2853 3084 3261 2657 
Q 3669 2231 3669 1497 
Q 3669 778 3244 343 
Q 2819 -91 2113 -91 
Q 1303 -91 875 529 
Q 447 1150 447 2328 
Q 447 3434 972 4092 
Q 1497 4750 2381 4750 
Q 2619 4750 2861 4703 
Q 3103 4656 3366 4563 
z
" transform="scale(0.015625)"/>
       </defs>
       <use xlink:href="#DejaVuSans-36"/>
      </g>
     </g>
    </g>
    <g id="ytick_7">
     <g id="line2d_14">
      <g>
       <use xlink:href="#mbb4a23d913" x="93.6" y="120.400494" style="stroke: #000000; stroke-width: 0.8"/>
      </g>
     </g>
     <g id="text_15">
      <!-- 7 -->
      <g transform="translate(80.2375 124.199713)scale(0.1 -0.1)">
       <defs>
        <path id="DejaVuSans-37" d="M 525 4666 
L 3525 4666 
L 3525 4397 
L 1831 0 
L 1172 0 
L 2766 4134 
L 525 4134 
L 525 4666 
z
" transform="scale(0.015625)"/>
       </defs>
       <use xlink:href="#DejaVuSans-37"/>
      </g>
     </g>
    </g>
    <g id="ytick_8">
     <g id="line2d_15">
      <g>
       <use xlink:href="#mbb4a23d913" x="93.6" y="94.261658" style="stroke: #000000; stroke-width: 0.8"/>
      </g>
     </g>
     <g id="text_16">
      <!-- 8 -->
      <g transform="translate(80.2375 98.060877)scale(0.1 -0.1)">
       <defs>
        <path id="DejaVuSans-38" d="M 2034 2216 
Q 1584 2216 1326 1975 
Q 1069 1734 1069 1313 
Q 1069 891 1326 650 
Q 1584 409 2034 409 
Q 2484 409 2743 651 
Q 3003 894 3003 1313 
Q 3003 1734 2745 1975 
Q 2488 2216 2034 2216 
z
M 1403 2484 
Q 997 2584 770 2862 
Q 544 3141 544 3541 
Q 544 4100 942 4425 
Q 1341 4750 2034 4750 
Q 2731 4750 3128 4425 
Q 3525 4100 3525 3541 
Q 3525 3141 3298 2862 
Q 3072 2584 2669 2484 
Q 3125 2378 3379 2068 
Q 3634 1759 3634 1313 
Q 3634 634 3220 271 
Q 2806 -91 2034 -91 
Q 1263 -91 848 271 
Q 434 634 434 1313 
Q 434 1759 690 2068 
Q 947 2378 1403 2484 
z
M 1172 3481 
Q 1172 3119 1398 2916 
Q 1625 2713 2034 2713 
Q 2441 2713 2670 2916 
Q 2900 3119 2900 3481 
Q 2900 3844 2670 4047 
Q 2441 4250 2034 4250 
Q 1625 4250 1398 4047 
Q 1172 3844 1172 3481 
z
" transform="scale(0.015625)"/>
       </defs>
       <use xlink:href="#DejaVuSans-38"/>
      </g>
     </g>
    </g>
    <g id="ytick_9">
     <g id="line2d_16">
      <g>
       <use xlink:href="#mbb4a23d913" x="93.6" y="68.122823" style="stroke: #000000; stroke-width: 0.8"/>
      </g>
     </g>
     <g id="text_17">
      <!-- 9 -->
      <g transform="translate(80.2375 71.922042)scale(0.1 -0.1)">
       <defs>
        <path id="DejaVuSans-39" d="M 703 97 
L 703 672 
Q 941 559 1184 500 
Q 1428 441 1663 441 
Q 2288 441 2617 861 
Q 2947 1281 2994 2138 
Q 2813 1869 2534 1725 
Q 2256 1581 1919 1581 
Q 1219 1581 811 2004 
Q 403 2428 403 3163 
Q 403 3881 828 4315 
Q 1253 4750 1959 4750 
Q 2769 4750 3195 4129 
Q 3622 3509 3622 2328 
Q 3622 1225 3098 567 
Q 2575 -91 1691 -91 
Q 1453 -91 1209 -44 
Q 966 3 703 97 
z
M 1959 2075 
Q 2384 2075 2632 2365 
Q 2881 2656 2881 3163 
Q 2881 3666 2632 3958 
Q 2384 4250 1959 4250 
Q 1534 4250 1286 3958 
Q 1038 3666 1038 3163 
Q 1038 2656 1286 2365 
Q 1534 2075 1959 2075 
z
" transform="scale(0.015625)"/>
       </defs>
       <use xlink:href="#DejaVuSans-39"/>
      </g>
     </g>
    </g>
    <g id="text_18">
     <!-- RMSF ($\AA$) -->
     <g transform="translate(73.533906 207.719771)rotate(-90)scale(0.13 -0.13)">
      <defs>
       <path id="DejaVuSans-4d" d="M 628 4666 
L 1569 4666 
L 2759 1491 
L 3956 4666 
L 4897 4666 
L 4897 0 
L 4281 0 
L 4281 4097 
L 3078 897 
L 2444 897 
L 1241 4097 
L 1241 0 
L 628 0 
L 628 4666 
z
" transform="scale(0.015625)"/>
       <path id="DejaVuSans-53" d="M 3425 4513 
L 3425 3897 
Q 3066 4069 2747 4153 
Q 2428 4238 2131 4238 
Q 1616 4238 1336 4038 
Q 1056 3838 1056 3469 
Q 1056 3159 1242 3001 
Q 1428 2844 1947 2747 
L 2328 2669 
Q 3034 2534 3370 2195 
Q 3706 1856 3706 1288 
Q 3706 609 3251 259 
Q 2797 -91 1919 -91 
Q 1588 -91 1214 -16 
Q 841 59 441 206 
L 441 856 
Q 825 641 1194 531 
Q 1563 422 1919 422 
Q 2459 422 2753 634 
Q 3047 847 3047 1241 
Q 3047 1584 2836 1778 
Q 2625 1972 2144 2069 
L 1759 2144 
Q 1053 2284 737 2584 
Q 422 2884 422 3419 
Q 422 4038 858 4394 
Q 1294 4750 2059 4750 
Q 2388 4750 2728 4690 
Q 3069 4631 3425 4513 
z
" transform="scale(0.015625)"/>
       <path id="DejaVuSans-46" d="M 628 4666 
L 3309 4666 
L 3309 4134 
L 1259 4134 
L 1259 2759 
L 3109 2759 
L 3109 2228 
L 1259 2228 
L 1259 0 
L 628 0 
L 628 4666 
z
" transform="scale(0.015625)"/>
       <path id="DejaVuSans-28" d="M 1984 4856 
Q 1566 4138 1362 3434 
Q 1159 2731 1159 2009 
Q 1159 1288 1364 580 
Q 1569 -128 1984 -844 
L 1484 -844 
Q 1016 -109 783 600 
Q 550 1309 550 2009 
Q 550 2706 781 3412 
Q 1013 4119 1484 4856 
L 1984 4856 
z
" transform="scale(0.015625)"/>
       <path id="STIXGeneral-Italic-c5" d="M 3610 0 
L 2042 0 
L 2042 102 
Q 2330 115 2432 192 
Q 2534 269 2534 442 
Q 2534 493 2522 608 
L 2394 1446 
L 986 1446 
L 608 736 
Q 467 474 467 314 
Q 467 122 864 102 
L 864 0 
L -326 0 
L -326 102 
Q -109 147 28 307 
Q 166 467 531 1101 
L 2355 4275 
L 2522 4275 
L 3110 736 
Q 3174 339 3264 230 
Q 3354 122 3610 102 
L 3610 0 
z
M 2362 1677 
L 2074 3360 
L 1120 1677 
L 2362 1677 
z
M 3043 5936 
Q 3232 5747 3232 5484 
Q 3232 5222 3043 5036 
Q 2854 4851 2592 4851 
Q 2317 4851 2134 5036 
Q 1952 5222 1952 5491 
Q 1952 5747 2141 5936 
Q 2330 6125 2586 6125 
Q 2854 6125 3043 5936 
z
M 2892 5187 
Q 3014 5306 3014 5485 
Q 3014 5664 2889 5785 
Q 2765 5907 2586 5907 
Q 2419 5907 2294 5782 
Q 2170 5658 2170 5491 
Q 2170 5312 2288 5190 
Q 2406 5069 2586 5069 
Q 2771 5069 2892 5187 
z
" transform="scale(0.015625)"/>
       <path id="DejaVuSans-29" d="M 513 4856 
L 1013 4856 
Q 1481 4119 1714 3412 
Q 1947 2706 1947 2009 
Q 1947 1309 1714 600 
Q 1481 -109 1013 -844 
L 513 -844 
Q 928 -128 1133 580 
Q 1338 1288 1338 2009 
Q 1338 2731 1133 3434 
Q 928 4138 513 4856 
z
" transform="scale(0.015625)"/>
      </defs>
      <use xlink:href="#DejaVuSans-52" transform="translate(0 0.296875)"/>
      <use xlink:href="#DejaVuSans-4d" transform="translate(69.482422 0.296875)"/>
      <use xlink:href="#DejaVuSans-53" transform="translate(155.761719 0.296875)"/>
      <use xlink:href="#DejaVuSans-46" transform="translate(219.238281 0.296875)"/>
      <use xlink:href="#DejaVuSans-20" transform="translate(276.757812 0.296875)"/>
      <use xlink:href="#DejaVuSans-28" transform="translate(308.544922 0.296875)"/>
      <use xlink:href="#STIXGeneral-Italic-c5" transform="translate(347.558594 0.296875)"/>
      <use xlink:href="#DejaVuSans-29" transform="translate(408.658585 0.296875)"/>
     </g>
    </g>
   </g>
   <g id="line2d_17">
    <path d="M 93.6 129.810475 
L 95.322018 152.185318 
L 97.044036 157.935862 
L 98.766053 155.243562 
L 100.488071 179.186735 
L 102.210089 207.207566 
L 103.932107 196.1247 
L 105.654125 210.997698 
L 107.376142 223.07384 
L 109.09816 194.948453 
L 110.820178 207.887176 
L 112.542196 216.303881 
L 114.264214 219.623513 
L 115.986231 241.135775 
L 117.708249 243.749658 
L 119.430267 250.624172 
L 121.152285 247.147707 
L 122.874303 252.584585 
L 124.59632 250.075257 
L 126.318338 251.408337 
L 128.040356 256.426994 
L 129.762374 259.589793 
L 131.484392 256.74066 
L 133.206409 250.754866 
L 134.928427 244.272435 
L 136.650445 245.448683 
L 138.372463 255.329162 
L 140.094481 252.68914 
L 141.816499 260.504652 
L 143.538516 266.987083 
L 145.260534 263.223091 
L 146.982552 262.491203 
L 148.70457 259.354543 
L 150.426588 254.04836 
L 152.148605 251.434476 
L 153.870623 234.940871 
L 155.592641 238.678724 
L 157.314659 244.638379 
L 159.036677 256.296299 
L 160.758694 265.549447 
L 162.480712 269.653244 
L 164.20273 268.921357 
L 165.924748 269.783938 
L 167.646766 261.079706 
L 169.368783 257.028187 
L 171.090801 246.389681 
L 172.812819 240.064083 
L 174.534837 235.777314 
L 176.256855 246.86018 
L 177.978872 248.376232 
L 179.70089 250.284367 
L 181.422908 257.577102 
L 183.144926 262.857147 
L 184.866944 260.138708 
L 186.588961 263.040119 
L 188.310979 271.561379 
L 190.032997 269.96691 
L 191.755015 267.980359 
L 193.477033 274.044569 
L 195.19905 274.044569 
L 196.921068 266.621139 
L 198.643086 267.71897 
L 200.365104 259.067016 
L 202.087122 257.132742 
L 203.809139 268.189469 
L 205.531157 268.712246 
L 207.253175 271.848906 
L 208.975193 270.332854 
L 210.697211 275.58676 
L 212.419228 280.056501 
L 214.141246 280.527 
L 215.863264 275.612899 
L 217.585282 275.299233 
L 219.3073 269.07819 
L 221.029318 266.333612 
L 222.751335 264.007256 
L 224.473353 255.250746 
L 227.917389 240.456165 
L 229.639407 223.387506 
L 231.361424 186.740858 
L 233.083442 156.916447 
L 234.80546 177.670682 
L 236.527478 220.172429 
L 238.249496 232.797486 
L 239.971513 246.964735 
L 241.693531 254.93708 
L 243.415549 262.177537 
L 245.137567 269.96691 
L 246.859585 271.482963 
L 248.581602 275.403788 
L 250.30362 271.665935 
L 252.025638 268.555413 
L 253.747656 266.412029 
L 255.469674 257.995324 
L 258.913709 267.928081 
L 260.635727 273.364959 
L 262.357745 271.927323 
L 264.079763 270.071466 
L 265.80178 264.503894 
L 269.245816 262.177537 
L 270.967834 259.093155 
L 272.689852 252.584585 
L 274.411869 253.421027 
L 276.133887 251.878836 
L 277.855905 254.152915 
L 279.577923 249.343369 
L 281.299941 250.153673 
L 283.021958 250.101395 
L 284.743976 255.564412 
L 286.465994 260.243264 
L 288.188012 258.674933 
L 289.91003 261.079706 
L 291.632047 267.170055 
L 293.354065 268.555413 
L 295.076083 266.699556 
L 296.798101 270.620381 
L 298.520119 275.743593 
L 300.242136 274.645762 
L 301.964154 272.789905 
L 303.686172 277.181229 
L 305.40819 280.500861 
L 307.130208 275.534482 
L 308.852226 274.384373 
L 310.574243 278.04381 
L 312.296261 278.27906 
L 314.018279 271.195436 
L 315.740297 267.692832 
L 317.462315 254.231331 
L 319.184332 229.556271 
L 322.628368 201.692272 
L 324.350386 185.904416 
L 326.072404 185.773721 
L 329.516439 224.825141 
L 331.238457 244.141741 
L 332.960475 259.19771 
L 334.682493 268.346303 
L 338.126528 278.671143 
L 341.570564 286.042294 
L 343.292582 282.435135 
L 345.014599 281.520276 
L 346.736617 285.624073 
L 348.458635 282.827217 
L 350.180653 278.906392 
L 351.902671 278.122227 
L 353.624688 281.807803 
L 355.346706 280.631555 
L 357.068724 276.841424 
L 358.790742 270.88177 
L 360.51276 267.0655 
L 362.234777 259.694348 
L 363.956795 257.603241 
L 365.678813 263.484479 
L 367.400831 267.353027 
L 369.122849 273.025154 
L 370.844866 276.370925 
L 372.566884 282.173746 
L 374.288902 283.271578 
L 376.01092 282.957912 
L 377.732938 281.729386 
L 379.454955 275.429927 
L 381.176973 276.736869 
L 382.898991 279.821251 
L 384.621009 271.665935 
L 386.343027 269.783938 
L 388.065045 261.524066 
L 391.50908 218.630237 
L 393.231098 208.122426 
L 394.953116 227.09922 
L 396.675134 231.804211 
L 398.397151 243.958769 
L 400.119169 235.019287 
L 401.841187 241.47558 
L 403.563205 255.721245 
L 405.285223 255.407579 
L 407.00724 258.75335 
L 408.729258 262.648036 
L 410.451276 267.50986 
L 412.173294 266.202918 
L 413.895312 278.383615 
L 415.617329 276.161814 
L 417.339347 277.860839 
L 419.061365 282.435135 
L 420.783383 280.004223 
L 422.505401 280.344028 
L 424.227418 276.083398 
L 425.949436 274.567345 
L 427.671454 275.090122 
L 429.393472 271.117019 
L 431.11549 265.915391 
L 432.837507 263.615173 
L 434.559525 261.811594 
L 436.281543 248.951287 
L 438.003561 248.716037 
L 439.725579 252.767557 
L 443.169614 268.869079 
L 444.891632 271.718212 
L 448.335668 280.004223 
L 450.057685 280.683833 
L 451.779703 280.134917 
L 453.501721 283.89891 
L 455.223739 286.826459 
L 456.945757 282.09533 
L 458.667774 282.252163 
L 460.389792 284.735352 
L 462.11181 280.814527 
L 463.833828 276.344786 
L 465.555846 277.677867 
L 467.277864 277.259645 
L 468.999881 271.953462 
L 470.721899 269.156606 
L 472.443917 269.025912 
L 474.165935 264.974393 
L 475.887953 260.034153 
L 477.60997 258.779489 
L 479.331988 257.028187 
L 481.054006 253.238056 
L 482.776024 246.128292 
L 484.498042 244.586101 
L 486.220059 243.200743 
L 487.942077 235.672758 
L 489.664095 231.020045 
L 491.386113 236.53534 
L 493.108131 243.72352 
L 494.830148 247.696622 
L 496.552166 252.427752 
L 498.274184 260.08643 
L 499.996202 262.909425 
L 501.71822 268.424719 
L 503.440237 271.352269 
L 505.162255 269.914633 
L 506.884273 265.078948 
L 508.606291 257.18502 
L 510.328309 259.903459 
L 512.050326 260.661485 
L 513.772344 258.126018 
L 515.494362 252.087947 
L 517.21638 248.480788 
L 518.938398 258.910183 
L 520.660415 257.812352 
L 522.382433 261.236539 
L 524.104451 257.550963 
L 525.826469 259.354543 
L 527.548487 267.222333 
L 529.270504 265.967668 
L 530.992522 263.24923 
L 534.436558 271.587518 
L 536.158576 269.182745 
L 537.880593 263.562896 
L 539.602611 262.857147 
L 541.324629 266.516584 
L 543.046647 267.013222 
L 544.768665 269.600967 
L 546.490682 267.300749 
L 548.2127 260.713763 
L 549.934718 257.420269 
L 553.378754 244.246296 
L 555.100772 241.815385 
L 556.822789 247.879594 
L 558.544807 246.102154 
L 560.266825 238.54803 
L 561.988843 241.527857 
L 563.710861 241.266469 
L 565.432878 247.853456 
L 567.154896 252.270919 
L 568.876914 249.238814 
L 570.598932 251.643587 
L 572.32095 258.75335 
L 574.042967 259.145432 
L 575.764985 257.18502 
L 577.487003 262.099121 
L 579.209021 267.797387 
L 580.931039 265.810835 
L 582.653056 265.915391 
L 584.375074 273.181987 
L 586.097092 275.534482 
L 587.81911 271.848906 
L 589.541128 272.423961 
L 591.263145 269.7578 
L 592.985163 273.547931 
L 594.707181 268.189469 
L 596.429199 266.019946 
L 598.151217 271.822768 
L 599.873234 269.261162 
L 601.595252 271.77049 
L 603.31727 273.077432 
L 605.039288 266.934805 
L 606.761306 263.589034 
L 608.483323 265.732419 
L 610.205341 262.412787 
L 611.927359 257.367992 
L 613.649377 256.583827 
L 615.371395 256.609965 
L 617.093412 247.827317 
L 618.81543 241.449441 
L 620.537448 240.586859 
L 622.259466 235.280676 
L 623.981484 226.053667 
L 625.703501 220.59065 
L 627.425519 227.77883 
L 629.147537 221.061149 
L 630.869555 201.927522 
L 632.591573 201.378606 
L 634.313591 208.671341 
L 636.035608 203.156047 
L 637.757626 174.220356 
L 639.479644 176.729684 
L 641.201662 183.081421 
L 642.92368 147.820132 
L 644.645697 122.648434 
L 646.367715 120.870993 
L 648.089733 97.084653 
L 649.811751 82.263933 
L 651.533769 81.192241 
L 653.255786 62.267724 
L 656.191282 -1 
M 657.710589 -1 
L 658.42184 6.827254 
L 658.86907 -1 
L 658.86907 -1 
" clip-path="url(#p32bc356574)" style="fill: none; stroke: #4a738c; stroke-width: 1.5; stroke-linecap: square"/>
   </g>
   <g id="LineCollection_1">
    <path d="M 126.318338 303.372342 
L 126.318338 251.408337 
" clip-path="url(#p32bc356574)" style="fill: none; stroke: #008000; stroke-width: 1.5"/>
    <path d="M 128.040356 303.372342 
L 128.040356 256.426994 
" clip-path="url(#p32bc356574)" style="fill: none; stroke: #008000; stroke-width: 1.5"/>
    <path d="M 129.762374 303.372342 
L 129.762374 259.589793 
" clip-path="url(#p32bc356574)" style="fill: none; stroke: #008000; stroke-width: 1.5"/>
    <path d="M 131.484392 303.372342 
L 131.484392 256.74066 
" clip-path="url(#p32bc356574)" style="fill: none; stroke: #008000; stroke-width: 1.5"/>
    <path d="M 133.206409 303.372342 
L 133.206409 250.754866 
" clip-path="url(#p32bc356574)" style="fill: none; stroke: #008000; stroke-width: 1.5"/>
    <path d="M 138.372463 303.372342 
L 138.372463 255.329162 
" clip-path="url(#p32bc356574)" style="fill: none; stroke: #008000; stroke-width: 1.5"/>
    <path d="M 143.538516 303.372342 
L 143.538516 266.987083 
" clip-path="url(#p32bc356574)" style="fill: none; stroke: #008000; stroke-width: 1.5"/>
    <path d="M 146.982552 303.372342 
L 146.982552 262.491203 
" clip-path="url(#p32bc356574)" style="fill: none; stroke: #008000; stroke-width: 1.5"/>
    <path d="M 162.480712 303.372342 
L 162.480712 269.653244 
" clip-path="url(#p32bc356574)" style="fill: none; stroke: #008000; stroke-width: 1.5"/>
    <path d="M 165.924748 303.372342 
L 165.924748 269.783938 
" clip-path="url(#p32bc356574)" style="fill: none; stroke: #008000; stroke-width: 1.5"/>
    <path d="M 188.310979 303.372342 
L 188.310979 271.561379 
" clip-path="url(#p32bc356574)" style="fill: none; stroke: #008000; stroke-width: 1.5"/>
    <path d="M 214.141246 303.372342 
L 214.141246 280.527 
" clip-path="url(#p32bc356574)" style="fill: none; stroke: #008000; stroke-width: 1.5"/>
    <path d="M 248.581602 303.372342 
L 248.581602 275.403788 
" clip-path="url(#p32bc356574)" style="fill: none; stroke: #008000; stroke-width: 1.5"/>
    <path d="M 252.025638 303.372342 
L 252.025638 268.555413 
" clip-path="url(#p32bc356574)" style="fill: none; stroke: #008000; stroke-width: 1.5"/>
    <path d="M 253.747656 303.372342 
L 253.747656 266.412029 
" clip-path="url(#p32bc356574)" style="fill: none; stroke: #008000; stroke-width: 1.5"/>
    <path d="M 255.469674 303.372342 
L 255.469674 257.995324 
" clip-path="url(#p32bc356574)" style="fill: none; stroke: #008000; stroke-width: 1.5"/>
    <path d="M 257.191691 303.372342 
L 257.191691 262.804869 
" clip-path="url(#p32bc356574)" style="fill: none; stroke: #008000; stroke-width: 1.5"/>
    <path d="M 260.635727 303.372342 
L 260.635727 273.364959 
" clip-path="url(#p32bc356574)" style="fill: none; stroke: #008000; stroke-width: 1.5"/>
    <path d="M 264.079763 303.372342 
L 264.079763 270.071466 
" clip-path="url(#p32bc356574)" style="fill: none; stroke: #008000; stroke-width: 1.5"/>
    <path d="M 265.80178 303.372342 
L 265.80178 264.503894 
" clip-path="url(#p32bc356574)" style="fill: none; stroke: #008000; stroke-width: 1.5"/>
    <path d="M 267.523798 303.372342 
L 267.523798 263.275368 
" clip-path="url(#p32bc356574)" style="fill: none; stroke: #008000; stroke-width: 1.5"/>
    <path d="M 270.967834 303.372342 
L 270.967834 259.093155 
" clip-path="url(#p32bc356574)" style="fill: none; stroke: #008000; stroke-width: 1.5"/>
    <path d="M 272.689852 303.372342 
L 272.689852 252.584585 
" clip-path="url(#p32bc356574)" style="fill: none; stroke: #008000; stroke-width: 1.5"/>
    <path d="M 274.411869 303.372342 
L 274.411869 253.421027 
" clip-path="url(#p32bc356574)" style="fill: none; stroke: #008000; stroke-width: 1.5"/>
    <path d="M 351.902671 303.372342 
L 351.902671 278.122227 
" clip-path="url(#p32bc356574)" style="fill: none; stroke: #008000; stroke-width: 1.5"/>
    <path d="M 357.068724 303.372342 
L 357.068724 276.841424 
" clip-path="url(#p32bc356574)" style="fill: none; stroke: #008000; stroke-width: 1.5"/>
    <path d="M 374.288902 303.372342 
L 374.288902 283.271578 
" clip-path="url(#p32bc356574)" style="fill: none; stroke: #008000; stroke-width: 1.5"/>
    <path d="M 376.01092 303.372342 
L 376.01092 282.957912 
" clip-path="url(#p32bc356574)" style="fill: none; stroke: #008000; stroke-width: 1.5"/>
    <path d="M 672.197982 303.372342 
L 672.197982 -1 
" clip-path="url(#p32bc356574)" style="fill: none; stroke: #008000; stroke-width: 1.5"/>
    <path d="M 673.92 303.372342 
L 673.92 -1 
" clip-path="url(#p32bc356574)" style="fill: none; stroke: #008000; stroke-width: 1.5"/>
   </g>
   <g id="patch_3">
    <path d="M 93.6 303.372342 
L 93.6 53.8272 
" style="fill: none; stroke: #000000; stroke-width: 0.8; stroke-linejoin: miter; stroke-linecap: square"/>
   </g>
   <g id="patch_4">
    <path d="M 673.92 303.372342 
L 673.92 53.8272 
" style="fill: none; stroke: #000000; stroke-width: 0.8; stroke-linejoin: miter; stroke-linecap: square"/>
   </g>
   <g id="patch_5">
    <path d="M 93.6 303.372342 
L 673.92 303.372342 
" style="fill: none; stroke: #000000; stroke-width: 0.8; stroke-linejoin: miter; stroke-linecap: square"/>
   </g>
   <g id="patch_6">
    <path d="M 93.6 53.8272 
L 673.92 53.8272 
" style="fill: none; stroke: #000000; stroke-width: 0.8; stroke-linejoin: miter; stroke-linecap: square"/>
   </g>
   <g id="legend_1">
    <g id="line2d_18">
     <path d="M 370.065 380.166909 
L 372.265 380.166909 
L 374.465 380.166909 
" style="fill: none; stroke: #4a738c; stroke-width: 4; stroke-linecap: square"/>
    </g>
    <g id="text_19">
     <!-- C$\alpha$ -->
     <g transform="translate(383.265 384.016909)scale(0.11 -0.11)">
      <defs>
       <path id="DejaVuSans-43" d="M 4122 4306 
L 4122 3641 
Q 3803 3938 3442 4084 
Q 3081 4231 2675 4231 
Q 1875 4231 1450 3742 
Q 1025 3253 1025 2328 
Q 1025 1406 1450 917 
Q 1875 428 2675 428 
Q 3081 428 3442 575 
Q 3803 722 4122 1019 
L 4122 359 
Q 3791 134 3420 21 
Q 3050 -91 2638 -91 
Q 1578 -91 968 557 
Q 359 1206 359 2328 
Q 359 3453 968 4101 
Q 1578 4750 2638 4750 
Q 3056 4750 3426 4639 
Q 3797 4528 4122 4306 
z
" transform="scale(0.015625)"/>
       <path id="STIXNonUnicode-Italic-e1d8" d="M 3942 2899 
L 2918 1427 
Q 2931 781 2982 570 
Q 3021 390 3270 390 
L 3245 294 
L 2989 -64 
Q 2650 -64 2528 105 
Q 2406 275 2381 595 
Q 1882 -64 1184 -64 
Q 774 -64 537 214 
Q 301 493 301 960 
Q 301 1709 800 2336 
Q 1299 2963 1946 2963 
Q 2739 2963 2880 2176 
L 3392 2899 
L 3942 2899 
z
M 2406 1715 
Q 2406 2093 2236 2301 
Q 2067 2509 1811 2509 
Q 1478 2509 1145 2109 
Q 813 1709 813 1062 
Q 813 749 953 569 
Q 1094 390 1318 390 
Q 1587 390 1878 652 
Q 2170 915 2381 1434 
Q 2406 1568 2406 1715 
z
" transform="scale(0.015625)"/>
      </defs>
      <use xlink:href="#DejaVuSans-43" transform="translate(0 0.78125)"/>
      <use xlink:href="#STIXNonUnicode-Italic-e1d8" transform="translate(69.824219 0.78125)"/>
     </g>
    </g>
   </g>
  </g>
  <g id="axes_2">
   <g id="patch_7">
    <path d="M 93.6 303.372342 
L 93.6 53.8272 
" style="fill: none; stroke: #000000; stroke-width: 0.8; stroke-linejoin: miter; stroke-linecap: square"/>
   </g>
   <g id="patch_8">
    <path d="M 673.92 303.372342 
L 673.92 53.8272 
" style="fill: none; stroke: #000000; stroke-width: 0.8; stroke-linejoin: miter; stroke-linecap: square"/>
   </g>
   <g id="patch_9">
    <path d="M 93.6 303.372342 
L 673.92 303.372342 
" style="fill: none; stroke: #000000; stroke-width: 0.8; stroke-linejoin: miter; stroke-linecap: square"/>
   </g>
   <g id="patch_10">
    <path d="M 93.6 53.8272 
L 673.92 53.8272 
" style="fill: none; stroke: #000000; stroke-width: 0.8; stroke-linejoin: miter; stroke-linecap: square"/>
   </g>
  </g>
 </g>
 <defs>
  <clipPath id="p32bc356574">
   <rect x="93.6" y="53.8272" width="580.32" height="249.545142"/>
  </clipPath>
 </defs>
</svg>
