<?xml version="1.0" encoding="utf-8" standalone="no"?>
<!DOCTYPE svg PUBLIC "-//W3C//DTD SVG 1.1//EN"
  "http://www.w3.org/Graphics/SVG/1.1/DTD/svg11.dtd">
<svg xmlns:xlink="http://www.w3.org/1999/xlink" width="774.72pt" height="164.16pt" viewBox="0 0 774.72 164.16" xmlns="http://www.w3.org/2000/svg" version="1.1">
 <metadata>
  <rdf:RDF xmlns:dc="http://purl.org/dc/elements/1.1/" xmlns:cc="http://creativecommons.org/ns#" xmlns:rdf="http://www.w3.org/1999/02/22-rdf-syntax-ns#">
   <cc:Work>
    <dc:type rdf:resource="http://purl.org/dc/dcmitype/StillImage"/>
    <dc:date>2025-06-30T15:05:22.694503</dc:date>
    <dc:format>image/svg+xml</dc:format>
    <dc:creator>
     <cc:Agent>
      <dc:title>Matplotlib v3.5.2, https://matplotlib.org/</dc:title>
     </cc:Agent>
    </dc:creator>
   </cc:Work>
  </rdf:RDF>
 </metadata>
 <defs>
  <style type="text/css">*{stroke-linejoin: round; stroke-linecap: butt}</style>
 </defs>
 <g id="figure_1">
  <g id="patch_1">
   <path d="M 0 164.16 
L 774.72 164.16 
L 774.72 0 
L 0 0 
z
" style="fill: #ffffff"/>
  </g>
  <g id="axes_1">
   <g id="patch_2">
    <path d="M 96.84 131.328 
L 697.248 131.328 
L 697.248 19.6992 
L 96.84 19.6992 
z
" style="fill: #ffffff"/>
   </g>
   <g id="PolyCollection_1">
    <path d="M 96.84 131.328 
L 96.84 131.328 
L 98.616355 131.328 
L 100.39271 131.328 
L 102.169065 131.328 
L 103.94542 131.328 
L 105.721775 131.328 
L 107.49813 131.328 
L 109.274485 131.328 
L 111.05084 131.328 
L 112.827195 131.328 
L 114.60355 131.328 
L 116.379905 131.328 
L 118.15626 131.328 
L 119.932615 131.328 
L 121.70897 131.328 
L 123.485325 131.328 
L 125.26168 131.328 
L 127.038036 131.328 
L 128.814391 131.328 
L 130.590746 131.328 
L 132.367101 131.328 
L 134.143456 131.328 
L 135.919811 131.328 
L 137.696166 131.328 
L 139.472521 131.328 
L 141.248876 131.328 
L 143.025231 131.328 
L 144.801586 131.328 
L 146.577941 131.328 
L 148.354296 131.328 
L 150.130651 131.328 
L 151.907006 131.328 
L 153.683361 131.328 
L 155.459716 131.328 
L 157.236071 131.328 
L 159.012426 131.328 
L 160.788781 131.328 
L 162.565136 131.328 
L 164.341491 131.328 
L 166.117846 131.328 
L 167.894201 131.328 
L 169.670556 131.328 
L 171.446911 131.328 
L 173.223266 131.328 
L 174.999621 131.328 
L 176.775976 131.328 
L 178.552331 131.328 
L 180.328686 131.328 
L 182.105041 131.328 
L 183.881396 131.328 
L 185.657751 131.328 
L 187.434107 131.328 
L 189.210462 131.328 
L 190.986817 131.328 
L 192.763172 131.328 
L 194.539527 131.328 
L 196.315882 131.328 
L 198.092237 131.328 
L 199.868592 131.328 
L 201.644947 131.328 
L 203.421302 131.328 
L 205.197657 131.328 
L 206.974012 131.328 
L 208.750367 131.328 
L 210.526722 131.328 
L 212.303077 131.328 
L 214.079432 131.328 
L 215.855787 131.328 
L 217.632142 131.328 
L 219.408497 131.328 
L 221.184852 131.328 
L 222.961207 131.328 
L 224.737562 131.328 
L 226.513917 131.328 
L 228.290272 131.328 
L 230.066627 131.328 
L 231.842982 131.328 
L 233.619337 131.328 
L 235.395692 131.328 
L 237.172047 131.328 
L 238.948402 131.328 
L 240.724757 131.328 
L 242.501112 131.328 
L 244.277467 131.328 
L 246.053822 131.328 
L 247.830178 131.328 
L 249.606533 131.328 
L 251.382888 131.328 
L 253.159243 131.328 
L 254.935598 131.328 
L 256.711953 131.328 
L 258.488308 131.328 
L 260.264663 131.328 
L 262.041018 131.328 
L 263.817373 131.328 
L 265.593728 131.328 
L 267.370083 131.328 
L 269.146438 131.328 
L 270.922793 131.328 
L 272.699148 131.328 
L 274.475503 131.328 
L 276.251858 131.328 
L 278.028213 131.328 
L 279.804568 131.328 
L 281.580923 131.328 
L 283.357278 131.328 
L 285.133633 131.328 
L 286.909988 131.328 
L 288.686343 131.328 
L 290.462698 131.328 
L 292.239053 131.328 
L 294.015408 131.328 
L 295.791763 131.328 
L 297.568118 131.328 
L 299.344473 131.328 
L 301.120828 131.328 
L 302.897183 131.328 
L 304.673538 131.328 
L 306.449893 131.328 
L 308.226249 131.328 
L 310.002604 131.328 
L 311.778959 131.328 
L 313.555314 131.328 
L 315.331669 131.328 
L 317.108024 131.328 
L 318.884379 131.328 
L 320.660734 131.328 
L 322.437089 131.328 
L 324.213444 131.328 
L 325.989799 131.328 
L 327.766154 131.328 
L 329.542509 131.328 
L 331.318864 131.328 
L 333.095219 131.328 
L 334.871574 131.328 
L 336.647929 131.328 
L 338.424284 131.328 
L 340.200639 131.328 
L 341.976994 131.328 
L 343.753349 131.328 
L 345.529704 131.328 
L 347.306059 131.328 
L 349.082414 131.328 
L 350.858769 131.328 
L 352.635124 131.328 
L 354.411479 131.328 
L 356.187834 131.328 
L 357.964189 131.328 
L 359.740544 131.328 
L 361.516899 131.328 
L 363.293254 131.328 
L 365.069609 131.328 
L 366.845964 131.328 
L 368.62232 131.328 
L 370.398675 131.328 
L 372.17503 131.328 
L 373.951385 131.328 
L 375.72774 131.328 
L 377.504095 131.328 
L 379.28045 131.328 
L 381.056805 131.328 
L 382.83316 131.328 
L 384.609515 131.328 
L 386.38587 131.328 
L 388.162225 131.328 
L 389.93858 131.328 
L 391.714935 131.328 
L 393.49129 131.328 
L 395.267645 131.328 
L 397.044 131.328 
L 398.820355 131.328 
L 400.59671 131.328 
L 402.373065 131.328 
L 404.14942 131.328 
L 405.925775 131.328 
L 407.70213 131.328 
L 409.478485 131.328 
L 411.25484 131.328 
L 413.031195 131.328 
L 414.80755 131.328 
L 416.583905 131.328 
L 418.36026 131.328 
L 420.136615 131.328 
L 421.91297 131.328 
L 423.689325 131.328 
L 425.46568 131.328 
L 427.242036 131.328 
L 429.018391 131.328 
L 430.794746 131.328 
L 432.571101 131.328 
L 434.347456 131.328 
L 436.123811 131.328 
L 437.900166 131.328 
L 439.676521 131.328 
L 441.452876 131.328 
L 443.229231 131.328 
L 445.005586 131.328 
L 446.781941 131.328 
L 448.558296 131.328 
L 450.334651 131.328 
L 452.111006 131.328 
L 453.887361 131.328 
L 455.663716 131.328 
L 457.440071 131.328 
L 459.216426 131.328 
L 460.992781 131.328 
L 462.769136 131.328 
L 464.545491 131.328 
L 466.321846 131.328 
L 468.098201 131.328 
L 469.874556 131.328 
L 471.650911 131.328 
L 473.427266 131.328 
L 475.203621 131.328 
L 476.979976 131.328 
L 478.756331 131.328 
L 480.532686 131.328 
L 482.309041 131.328 
L 484.085396 131.328 
L 485.861751 131.328 
L 487.638107 131.328 
L 489.414462 131.328 
L 491.190817 131.328 
L 492.967172 131.328 
L 494.743527 131.328 
L 496.519882 131.328 
L 498.296237 131.328 
L 500.072592 131.328 
L 501.848947 131.328 
L 503.625302 131.328 
L 505.401657 131.328 
L 507.178012 131.328 
L 508.954367 131.328 
L 510.730722 131.328 
L 512.507077 131.328 
L 514.283432 131.328 
L 516.059787 131.328 
L 517.836142 131.328 
L 519.612497 131.328 
L 521.388852 131.328 
L 523.165207 131.328 
L 524.941562 131.328 
L 526.717917 131.328 
L 528.494272 131.328 
L 530.270627 131.328 
L 532.046982 131.328 
L 533.823337 131.328 
L 535.599692 131.328 
L 537.376047 131.328 
L 539.152402 131.328 
L 540.928757 131.328 
L 542.705112 131.328 
L 544.481467 131.328 
L 546.257822 131.328 
L 548.034178 131.328 
L 549.810533 131.328 
L 551.586888 131.328 
L 553.363243 131.328 
L 555.139598 131.328 
L 556.915953 131.328 
L 558.692308 131.328 
L 560.468663 131.328 
L 562.245018 131.328 
L 564.021373 131.328 
L 565.797728 131.328 
L 567.574083 131.328 
L 569.350438 131.328 
L 571.126793 131.328 
L 572.903148 131.328 
L 574.679503 131.328 
L 576.455858 131.328 
L 578.232213 131.328 
L 580.008568 131.328 
L 581.784923 131.328 
L 583.561278 131.328 
L 585.337633 131.328 
L 587.113988 131.328 
L 588.890343 131.328 
L 590.666698 131.328 
L 592.443053 131.328 
L 594.219408 131.328 
L 595.995763 131.328 
L 597.772118 131.328 
L 599.548473 131.328 
L 601.324828 131.328 
L 603.101183 131.328 
L 604.877538 131.328 
L 606.653893 131.328 
L 608.430249 131.328 
L 610.206604 131.328 
L 611.982959 131.328 
L 613.759314 131.328 
L 615.535669 131.328 
L 617.312024 131.328 
L 619.088379 131.328 
L 620.864734 131.328 
L 622.641089 131.328 
L 624.417444 131.328 
L 626.193799 131.328 
L 627.970154 131.328 
L 629.746509 131.328 
L 631.522864 131.328 
L 633.299219 131.328 
L 635.075574 131.328 
L 636.851929 131.328 
L 638.628284 131.328 
L 640.404639 131.328 
L 642.180994 131.328 
L 643.957349 131.328 
L 645.733704 131.328 
L 647.510059 131.328 
L 649.286414 131.328 
L 651.062769 131.328 
L 652.839124 131.328 
L 654.615479 131.328 
L 656.391834 131.328 
L 658.168189 131.328 
L 659.944544 131.328 
L 661.720899 131.328 
L 663.497254 131.328 
L 665.273609 131.328 
L 667.049964 131.328 
L 668.82632 131.328 
L 670.602675 131.328 
L 672.37903 131.328 
L 674.155385 131.328 
L 675.93174 131.328 
L 677.708095 131.328 
L 679.48445 131.328 
L 681.260805 131.328 
L 683.03716 131.328 
L 684.813515 131.328 
L 686.58987 131.328 
L 688.366225 131.328 
L 690.14258 131.328 
L 691.918935 131.328 
L 693.69529 131.328 
L 695.471645 131.328 
L 695.471645 131.328 
L 695.471645 131.328 
L 693.69529 131.328 
L 691.918935 131.328 
L 690.14258 131.328 
L 688.366225 131.328 
L 686.58987 131.328 
L 684.813515 131.328 
L 683.03716 131.328 
L 681.260805 131.328 
L 679.48445 131.328 
L 677.708095 131.328 
L 675.93174 131.328 
L 674.155385 130.054789 
L 672.37903 124.325338 
L 670.602675 119.338594 
L 668.82632 87.826614 
L 667.049964 79.975145 
L 665.273609 76.792116 
L 663.497254 65.757618 
L 661.720899 75.731107 
L 659.944544 75.837208 
L 658.168189 74.670098 
L 656.391834 92.919459 
L 654.615479 116.68607 
L 652.839124 55.890231 
L 651.062769 55.147524 
L 649.286414 46.76555 
L 647.510059 45.280137 
L 645.733704 58.861057 
L 643.957349 42.839815 
L 642.180994 37.853071 
L 640.404639 26.394169 
L 638.628284 25.33316 
L 636.851929 25.33316 
L 635.075574 25.014857 
L 633.299219 25.33316 
L 631.522864 25.651463 
L 629.746509 25.014857 
L 627.970154 25.757564 
L 626.193799 27.773482 
L 624.417444 35.412749 
L 622.641089 40.399494 
L 620.864734 131.328 
L 619.088379 131.328 
L 617.312024 131.328 
L 615.535669 131.328 
L 613.759314 131.328 
L 611.982959 131.328 
L 610.206604 131.328 
L 608.430249 131.328 
L 606.653893 131.328 
L 604.877538 126.129054 
L 603.101183 44.53743 
L 601.324828 44.53743 
L 599.548473 25.757564 
L 597.772118 25.439261 
L 595.995763 25.014857 
L 594.219408 25.014857 
L 592.443053 25.120958 
L 590.666698 25.014857 
L 588.890343 25.014857 
L 587.113988 25.120958 
L 585.337633 25.227059 
L 583.561278 131.328 
L 581.784923 131.328 
L 580.008568 131.328 
L 578.232213 128.993779 
L 576.455858 88.675422 
L 574.679503 88.675422 
L 572.903148 88.675422 
L 571.126793 88.887624 
L 569.350438 131.328 
L 567.574083 131.328 
L 565.797728 131.328 
L 564.021373 131.328 
L 562.245018 131.328 
L 560.468663 131.328 
L 558.692308 131.328 
L 556.915953 131.328 
L 555.139598 130.903596 
L 553.363243 118.91419 
L 551.586888 30.638207 
L 549.810533 25.120958 
L 548.034178 25.120958 
L 546.257822 25.120958 
L 544.481467 25.120958 
L 542.705112 25.227059 
L 540.928757 26.606371 
L 539.152402 26.818573 
L 537.376047 131.328 
L 535.599692 131.328 
L 533.823337 131.328 
L 532.046982 131.328 
L 530.270627 131.328 
L 528.494272 125.598549 
L 526.717917 125.598549 
L 524.941562 125.598549 
L 523.165207 125.598549 
L 521.388852 131.328 
L 519.612497 131.328 
L 517.836142 131.328 
L 516.059787 131.328 
L 514.283432 131.328 
L 512.507077 131.328 
L 510.730722 131.328 
L 508.954367 131.328 
L 507.178012 131.328 
L 505.401657 131.328 
L 503.625302 131.328 
L 501.848947 131.328 
L 500.072592 131.328 
L 498.296237 131.328 
L 496.519882 131.328 
L 494.743527 131.009697 
L 492.967172 89.524229 
L 491.190817 25.120958 
L 489.414462 25.120958 
L 487.638107 25.014857 
L 485.861751 25.014857 
L 484.085396 25.227059 
L 482.309041 25.014857 
L 480.532686 25.014857 
L 478.756331 25.014857 
L 476.979976 25.120958 
L 475.203621 25.014857 
L 473.427266 25.014857 
L 471.650911 25.014857 
L 469.874556 25.014857 
L 468.098201 25.545362 
L 466.321846 25.33316 
L 464.545491 25.227059 
L 462.769136 27.56128 
L 460.992781 27.773482 
L 459.216426 35.306648 
L 457.440071 72.548079 
L 455.663716 131.328 
L 453.887361 131.328 
L 452.111006 131.328 
L 450.334651 131.328 
L 448.558296 131.328 
L 446.781941 131.328 
L 445.005586 131.328 
L 443.229231 131.328 
L 441.452876 131.328 
L 439.676521 131.328 
L 437.900166 131.328 
L 436.123811 131.328 
L 434.347456 131.328 
L 432.571101 131.328 
L 430.794746 131.328 
L 429.018391 131.328 
L 427.242036 131.328 
L 425.46568 131.328 
L 423.689325 131.328 
L 421.91297 131.328 
L 420.136615 131.328 
L 418.36026 131.328 
L 416.583905 131.328 
L 414.80755 131.328 
L 413.031195 131.328 
L 411.25484 131.328 
L 409.478485 131.328 
L 407.70213 131.328 
L 405.925775 131.328 
L 404.14942 131.328 
L 402.373065 131.328 
L 400.59671 131.328 
L 398.820355 131.328 
L 397.044 131.328 
L 395.267645 131.328 
L 393.49129 131.328 
L 391.714935 131.328 
L 389.93858 131.328 
L 388.162225 131.328 
L 386.38587 131.328 
L 384.609515 131.328 
L 382.83316 131.328 
L 381.056805 131.328 
L 379.28045 131.328 
L 377.504095 131.328 
L 375.72774 131.328 
L 373.951385 131.328 
L 372.17503 131.328 
L 370.398675 131.328 
L 368.62232 131.328 
L 366.845964 131.328 
L 365.069609 131.328 
L 363.293254 131.328 
L 361.516899 131.328 
L 359.740544 131.328 
L 357.964189 131.328 
L 356.187834 131.328 
L 354.411479 131.328 
L 352.635124 131.328 
L 350.858769 131.328 
L 349.082414 131.328 
L 347.306059 131.328 
L 345.529704 131.328 
L 343.753349 131.328 
L 341.976994 131.328 
L 340.200639 131.328 
L 338.424284 131.328 
L 336.647929 131.328 
L 334.871574 131.328 
L 333.095219 131.328 
L 331.318864 131.328 
L 329.542509 131.328 
L 327.766154 131.328 
L 325.989799 131.328 
L 324.213444 131.328 
L 322.437089 29.789399 
L 320.660734 25.33316 
L 318.884379 25.33316 
L 317.108024 25.014857 
L 315.331669 25.014857 
L 313.555314 25.014857 
L 311.778959 25.014857 
L 310.002604 25.014857 
L 308.226249 25.014857 
L 306.449893 25.014857 
L 304.673538 25.014857 
L 302.897183 25.014857 
L 301.120828 25.014857 
L 299.344473 25.014857 
L 297.568118 25.014857 
L 295.791763 25.014857 
L 294.015408 25.014857 
L 292.239053 25.014857 
L 290.462698 25.014857 
L 288.686343 131.328 
L 286.909988 131.328 
L 285.133633 131.328 
L 283.357278 131.328 
L 281.580923 74.882299 
L 279.804568 73.715189 
L 278.028213 33.290731 
L 276.251858 25.227059 
L 274.475503 25.33316 
L 272.699148 25.33316 
L 270.922793 25.545362 
L 269.146438 131.328 
L 267.370083 131.328 
L 265.593728 131.328 
L 263.817373 131.328 
L 262.041018 131.328 
L 260.264663 131.328 
L 258.488308 131.328 
L 256.711953 131.328 
L 254.935598 131.328 
L 253.159243 131.328 
L 251.382888 131.328 
L 249.606533 131.328 
L 247.830178 131.328 
L 246.053822 131.328 
L 244.277467 131.009697 
L 242.501112 131.009697 
L 240.724757 131.009697 
L 238.948402 131.009697 
L 237.172047 131.328 
L 235.395692 131.328 
L 233.619337 131.328 
L 231.842982 131.328 
L 230.066627 131.328 
L 228.290272 131.328 
L 226.513917 131.328 
L 224.737562 131.328 
L 222.961207 131.328 
L 221.184852 131.328 
L 219.408497 131.328 
L 217.632142 131.328 
L 215.855787 131.328 
L 214.079432 131.328 
L 212.303077 131.328 
L 210.526722 131.328 
L 208.750367 131.328 
L 206.974012 131.328 
L 205.197657 131.328 
L 203.421302 111.593225 
L 201.644947 49.630275 
L 199.868592 26.606371 
L 198.092237 26.606371 
L 196.315882 25.014857 
L 194.539527 25.014857 
L 192.763172 25.014857 
L 190.986817 25.014857 
L 189.210462 25.120958 
L 187.434107 25.120958 
L 185.657751 25.545362 
L 183.881396 27.985683 
L 182.105041 131.328 
L 180.328686 131.328 
L 178.552331 131.328 
L 176.775976 131.328 
L 174.999621 131.328 
L 173.223266 131.328 
L 171.446911 131.328 
L 169.670556 131.328 
L 167.894201 131.328 
L 166.117846 131.328 
L 164.341491 131.328 
L 162.565136 131.328 
L 160.788781 131.328 
L 159.012426 131.328 
L 157.236071 131.328 
L 155.459716 131.328 
L 153.683361 131.328 
L 151.907006 131.328 
L 150.130651 131.328 
L 148.354296 131.328 
L 146.577941 131.328 
L 144.801586 131.328 
L 143.025231 131.328 
L 141.248876 131.328 
L 139.472521 131.328 
L 137.696166 131.328 
L 135.919811 131.328 
L 134.143456 131.328 
L 132.367101 131.328 
L 130.590746 131.328 
L 128.814391 131.328 
L 127.038036 131.328 
L 125.26168 131.328 
L 123.485325 131.328 
L 121.70897 131.328 
L 119.932615 131.328 
L 118.15626 131.328 
L 116.379905 131.328 
L 114.60355 131.328 
L 112.827195 131.328 
L 111.05084 131.328 
L 109.274485 131.328 
L 107.49813 131.328 
L 105.721775 131.328 
L 103.94542 131.328 
L 102.169065 131.328 
L 100.39271 131.328 
L 98.616355 131.328 
L 96.84 131.328 
z
" clip-path="url(#p0591c0a398)" style="fill: #f06040"/>
   </g>
   <g id="PolyCollection_2">
    <path d="M 96.84 131.328 
L 96.84 131.328 
L 98.616355 131.328 
L 100.39271 131.328 
L 102.169065 131.328 
L 103.94542 131.328 
L 105.721775 131.328 
L 107.49813 131.328 
L 109.274485 131.328 
L 111.05084 131.328 
L 112.827195 131.328 
L 114.60355 131.328 
L 116.379905 131.328 
L 118.15626 131.328 
L 119.932615 131.328 
L 121.70897 131.328 
L 123.485325 131.328 
L 125.26168 131.328 
L 127.038036 131.328 
L 128.814391 131.328 
L 130.590746 131.328 
L 132.367101 131.328 
L 134.143456 131.328 
L 135.919811 131.328 
L 137.696166 131.328 
L 139.472521 131.328 
L 141.248876 131.328 
L 143.025231 131.328 
L 144.801586 131.328 
L 146.577941 131.328 
L 148.354296 131.328 
L 150.130651 131.328 
L 151.907006 131.328 
L 153.683361 131.328 
L 155.459716 131.328 
L 157.236071 131.328 
L 159.012426 131.328 
L 160.788781 131.328 
L 162.565136 131.328 
L 164.341491 131.328 
L 166.117846 131.328 
L 167.894201 131.328 
L 169.670556 131.328 
L 171.446911 131.328 
L 173.223266 131.328 
L 174.999621 131.328 
L 176.775976 131.328 
L 178.552331 131.328 
L 180.328686 131.328 
L 182.105041 131.328 
L 183.881396 131.328 
L 185.657751 131.328 
L 187.434107 131.328 
L 189.210462 131.328 
L 190.986817 131.328 
L 192.763172 131.328 
L 194.539527 131.328 
L 196.315882 131.328 
L 198.092237 131.328 
L 199.868592 131.328 
L 201.644947 131.328 
L 203.421302 131.328 
L 205.197657 131.328 
L 206.974012 131.328 
L 208.750367 131.328 
L 210.526722 131.328 
L 212.303077 131.328 
L 214.079432 131.328 
L 215.855787 131.328 
L 217.632142 131.328 
L 219.408497 131.328 
L 221.184852 131.328 
L 222.961207 131.328 
L 224.737562 131.328 
L 226.513917 131.328 
L 228.290272 131.328 
L 230.066627 131.328 
L 231.842982 131.328 
L 233.619337 131.328 
L 235.395692 131.328 
L 237.172047 131.328 
L 238.948402 131.328 
L 240.724757 131.328 
L 242.501112 131.328 
L 244.277467 131.328 
L 246.053822 131.328 
L 247.830178 131.328 
L 249.606533 131.328 
L 251.382888 131.328 
L 253.159243 131.328 
L 254.935598 131.328 
L 256.711953 131.328 
L 258.488308 131.328 
L 260.264663 131.328 
L 262.041018 131.328 
L 263.817373 131.328 
L 265.593728 131.328 
L 267.370083 131.328 
L 269.146438 131.328 
L 270.922793 131.328 
L 272.699148 131.328 
L 274.475503 131.328 
L 276.251858 131.328 
L 278.028213 131.328 
L 279.804568 131.328 
L 281.580923 131.328 
L 283.357278 131.328 
L 285.133633 131.328 
L 286.909988 131.328 
L 288.686343 131.328 
L 290.462698 131.328 
L 292.239053 131.328 
L 294.015408 131.328 
L 295.791763 131.328 
L 297.568118 131.328 
L 299.344473 131.328 
L 301.120828 131.328 
L 302.897183 131.328 
L 304.673538 131.328 
L 306.449893 131.328 
L 308.226249 131.328 
L 310.002604 131.328 
L 311.778959 131.328 
L 313.555314 131.328 
L 315.331669 131.328 
L 317.108024 131.328 
L 318.884379 131.328 
L 320.660734 131.328 
L 322.437089 131.328 
L 324.213444 131.328 
L 325.989799 131.328 
L 327.766154 131.328 
L 329.542509 131.328 
L 331.318864 131.328 
L 333.095219 131.328 
L 334.871574 131.328 
L 336.647929 131.328 
L 338.424284 131.328 
L 340.200639 131.328 
L 341.976994 131.328 
L 343.753349 131.328 
L 345.529704 131.328 
L 347.306059 131.328 
L 349.082414 131.328 
L 350.858769 131.328 
L 352.635124 131.328 
L 354.411479 131.328 
L 356.187834 131.328 
L 357.964189 131.328 
L 359.740544 131.328 
L 361.516899 131.328 
L 363.293254 131.328 
L 365.069609 131.328 
L 366.845964 131.328 
L 368.62232 131.328 
L 370.398675 131.328 
L 372.17503 131.328 
L 373.951385 131.328 
L 375.72774 131.328 
L 377.504095 131.328 
L 379.28045 131.328 
L 381.056805 131.328 
L 382.83316 131.328 
L 384.609515 131.328 
L 386.38587 131.328 
L 388.162225 131.328 
L 389.93858 131.328 
L 391.714935 131.328 
L 393.49129 131.328 
L 395.267645 131.328 
L 397.044 131.328 
L 398.820355 131.328 
L 400.59671 131.328 
L 402.373065 131.328 
L 404.14942 131.328 
L 405.925775 131.328 
L 407.70213 131.328 
L 409.478485 131.328 
L 411.25484 131.328 
L 413.031195 131.328 
L 414.80755 131.328 
L 416.583905 131.328 
L 418.36026 131.328 
L 420.136615 131.328 
L 421.91297 131.328 
L 423.689325 131.328 
L 425.46568 131.328 
L 427.242036 131.328 
L 429.018391 131.328 
L 430.794746 131.328 
L 432.571101 131.328 
L 434.347456 131.328 
L 436.123811 131.328 
L 437.900166 131.328 
L 439.676521 131.328 
L 441.452876 131.328 
L 443.229231 131.328 
L 445.005586 131.328 
L 446.781941 131.328 
L 448.558296 131.328 
L 450.334651 131.328 
L 452.111006 131.328 
L 453.887361 131.328 
L 455.663716 131.328 
L 457.440071 131.328 
L 459.216426 131.328 
L 460.992781 131.328 
L 462.769136 131.328 
L 464.545491 131.328 
L 466.321846 131.328 
L 468.098201 131.328 
L 469.874556 131.328 
L 471.650911 131.328 
L 473.427266 131.328 
L 475.203621 131.328 
L 476.979976 131.328 
L 478.756331 131.328 
L 480.532686 131.328 
L 482.309041 131.328 
L 484.085396 131.328 
L 485.861751 131.328 
L 487.638107 131.328 
L 489.414462 131.328 
L 491.190817 131.328 
L 492.967172 131.328 
L 494.743527 131.328 
L 496.519882 131.328 
L 498.296237 131.328 
L 500.072592 131.328 
L 501.848947 131.328 
L 503.625302 131.328 
L 505.401657 131.328 
L 507.178012 131.328 
L 508.954367 131.328 
L 510.730722 131.328 
L 512.507077 131.328 
L 514.283432 131.328 
L 516.059787 131.328 
L 517.836142 131.328 
L 519.612497 131.328 
L 521.388852 131.328 
L 523.165207 131.328 
L 524.941562 131.328 
L 526.717917 131.328 
L 528.494272 131.328 
L 530.270627 131.328 
L 532.046982 131.328 
L 533.823337 131.328 
L 535.599692 131.328 
L 537.376047 131.328 
L 539.152402 131.328 
L 540.928757 131.328 
L 542.705112 131.328 
L 544.481467 131.328 
L 546.257822 131.328 
L 548.034178 131.328 
L 549.810533 131.328 
L 551.586888 131.328 
L 553.363243 131.328 
L 555.139598 131.328 
L 556.915953 131.328 
L 558.692308 131.328 
L 560.468663 131.328 
L 562.245018 131.328 
L 564.021373 131.328 
L 565.797728 131.328 
L 567.574083 131.328 
L 569.350438 131.328 
L 571.126793 131.328 
L 572.903148 131.328 
L 574.679503 131.328 
L 576.455858 131.328 
L 578.232213 131.328 
L 580.008568 131.328 
L 581.784923 131.328 
L 583.561278 131.328 
L 585.337633 131.328 
L 587.113988 131.328 
L 588.890343 131.328 
L 590.666698 131.328 
L 592.443053 131.328 
L 594.219408 131.328 
L 595.995763 131.328 
L 597.772118 131.328 
L 599.548473 131.328 
L 601.324828 131.328 
L 603.101183 131.328 
L 604.877538 131.328 
L 606.653893 131.328 
L 608.430249 131.328 
L 610.206604 131.328 
L 611.982959 131.328 
L 613.759314 131.328 
L 615.535669 131.328 
L 617.312024 131.328 
L 619.088379 131.328 
L 620.864734 131.328 
L 622.641089 131.328 
L 624.417444 131.328 
L 626.193799 131.328 
L 627.970154 131.328 
L 629.746509 131.328 
L 631.522864 131.328 
L 633.299219 131.328 
L 635.075574 131.328 
L 636.851929 131.328 
L 638.628284 131.328 
L 640.404639 131.328 
L 642.180994 131.328 
L 643.957349 131.328 
L 645.733704 131.328 
L 647.510059 131.328 
L 649.286414 131.328 
L 651.062769 131.328 
L 652.839124 131.328 
L 654.615479 131.328 
L 656.391834 131.328 
L 658.168189 131.328 
L 659.944544 131.328 
L 661.720899 131.328 
L 663.497254 131.328 
L 665.273609 131.328 
L 667.049964 131.328 
L 668.82632 131.328 
L 670.602675 131.328 
L 672.37903 131.328 
L 674.155385 131.328 
L 675.93174 131.328 
L 677.708095 131.328 
L 679.48445 131.328 
L 681.260805 131.328 
L 683.03716 131.328 
L 684.813515 131.328 
L 686.58987 131.328 
L 688.366225 131.328 
L 690.14258 131.328 
L 691.918935 131.328 
L 693.69529 131.328 
L 695.471645 131.328 
L 695.471645 131.328 
L 695.471645 131.328 
L 693.69529 131.328 
L 691.918935 131.328 
L 690.14258 131.328 
L 688.366225 131.328 
L 686.58987 131.328 
L 684.813515 131.328 
L 683.03716 131.328 
L 681.260805 131.221899 
L 679.48445 131.221899 
L 677.708095 131.328 
L 675.93174 131.328 
L 674.155385 131.221899 
L 672.37903 131.221899 
L 670.602675 131.328 
L 668.82632 131.328 
L 667.049964 131.328 
L 665.273609 131.328 
L 663.497254 131.328 
L 661.720899 131.328 
L 659.944544 131.328 
L 658.168189 131.328 
L 656.391834 131.328 
L 654.615479 131.328 
L 652.839124 131.328 
L 651.062769 131.328 
L 649.286414 131.328 
L 647.510059 131.328 
L 645.733704 131.328 
L 643.957349 131.328 
L 642.180994 131.328 
L 640.404639 131.328 
L 638.628284 131.328 
L 636.851929 131.328 
L 635.075574 131.328 
L 633.299219 131.328 
L 631.522864 131.328 
L 629.746509 131.328 
L 627.970154 131.328 
L 626.193799 131.328 
L 624.417444 131.328 
L 622.641089 131.328 
L 620.864734 131.328 
L 619.088379 131.328 
L 617.312024 131.328 
L 615.535669 131.328 
L 613.759314 131.328 
L 611.982959 131.328 
L 610.206604 131.328 
L 608.430249 131.328 
L 606.653893 131.328 
L 604.877538 131.328 
L 603.101183 131.328 
L 601.324828 131.328 
L 599.548473 131.328 
L 597.772118 131.328 
L 595.995763 131.328 
L 594.219408 131.328 
L 592.443053 131.328 
L 590.666698 131.328 
L 588.890343 131.328 
L 587.113988 131.328 
L 585.337633 131.328 
L 583.561278 131.328 
L 581.784923 131.328 
L 580.008568 131.328 
L 578.232213 131.328 
L 576.455858 131.328 
L 574.679503 131.328 
L 572.903148 131.328 
L 571.126793 131.328 
L 569.350438 131.328 
L 567.574083 131.328 
L 565.797728 131.328 
L 564.021373 131.328 
L 562.245018 131.328 
L 560.468663 131.328 
L 558.692308 131.328 
L 556.915953 131.328 
L 555.139598 131.328 
L 553.363243 131.328 
L 551.586888 131.328 
L 549.810533 131.328 
L 548.034178 131.328 
L 546.257822 131.328 
L 544.481467 131.328 
L 542.705112 131.328 
L 540.928757 131.328 
L 539.152402 131.328 
L 537.376047 131.328 
L 535.599692 131.328 
L 533.823337 131.328 
L 532.046982 131.328 
L 530.270627 131.328 
L 528.494272 131.328 
L 526.717917 131.328 
L 524.941562 131.328 
L 523.165207 131.328 
L 521.388852 131.328 
L 519.612497 131.328 
L 517.836142 131.328 
L 516.059787 131.328 
L 514.283432 131.328 
L 512.507077 131.328 
L 510.730722 131.328 
L 508.954367 131.328 
L 507.178012 131.328 
L 505.401657 131.328 
L 503.625302 131.328 
L 501.848947 131.328 
L 500.072592 131.328 
L 498.296237 131.009697 
L 496.519882 131.009697 
L 494.743527 131.328 
L 492.967172 131.328 
L 491.190817 131.328 
L 489.414462 131.328 
L 487.638107 131.328 
L 485.861751 131.328 
L 484.085396 131.328 
L 482.309041 131.328 
L 480.532686 131.328 
L 478.756331 131.328 
L 476.979976 131.328 
L 475.203621 131.328 
L 473.427266 131.328 
L 471.650911 131.328 
L 469.874556 131.328 
L 468.098201 131.328 
L 466.321846 131.328 
L 464.545491 131.328 
L 462.769136 131.328 
L 460.992781 131.328 
L 459.216426 131.328 
L 457.440071 131.328 
L 455.663716 131.328 
L 453.887361 131.328 
L 452.111006 131.328 
L 450.334651 131.328 
L 448.558296 131.328 
L 446.781941 131.328 
L 445.005586 131.328 
L 443.229231 131.328 
L 441.452876 131.328 
L 439.676521 131.328 
L 437.900166 131.328 
L 436.123811 131.328 
L 434.347456 131.328 
L 432.571101 131.328 
L 430.794746 131.328 
L 429.018391 131.328 
L 427.242036 131.328 
L 425.46568 131.328 
L 423.689325 131.328 
L 421.91297 131.328 
L 420.136615 131.328 
L 418.36026 131.328 
L 416.583905 131.328 
L 414.80755 131.328 
L 413.031195 131.328 
L 411.25484 131.328 
L 409.478485 131.328 
L 407.70213 131.328 
L 405.925775 131.328 
L 404.14942 131.328 
L 402.373065 128.251073 
L 400.59671 127.826669 
L 398.820355 32.548024 
L 397.044 32.654125 
L 395.267645 131.328 
L 393.49129 131.328 
L 391.714935 131.328 
L 389.93858 131.328 
L 388.162225 131.328 
L 386.38587 131.328 
L 384.609515 25.863665 
L 382.83316 25.120958 
L 381.056805 25.120958 
L 379.28045 131.221899 
L 377.504095 131.328 
L 375.72774 131.328 
L 373.951385 131.328 
L 372.17503 131.221899 
L 370.398675 25.014857 
L 368.62232 25.014857 
L 366.845964 25.863665 
L 365.069609 131.328 
L 363.293254 131.328 
L 361.516899 131.328 
L 359.740544 131.328 
L 357.964189 131.328 
L 356.187834 131.328 
L 354.411479 131.328 
L 352.635124 131.328 
L 350.858769 32.654125 
L 349.082414 32.654125 
L 347.306059 130.16089 
L 345.529704 130.691394 
L 343.753349 129.418183 
L 341.976994 129.842587 
L 340.200639 130.903596 
L 338.424284 130.903596 
L 336.647929 131.328 
L 334.871574 131.328 
L 333.095219 130.903596 
L 331.318864 130.903596 
L 329.542509 129.842587 
L 327.766154 129.418183 
L 325.989799 130.797495 
L 324.213444 131.328 
L 322.437089 131.328 
L 320.660734 131.328 
L 318.884379 131.328 
L 317.108024 131.328 
L 315.331669 131.328 
L 313.555314 131.328 
L 311.778959 131.328 
L 310.002604 131.328 
L 308.226249 131.328 
L 306.449893 131.328 
L 304.673538 131.328 
L 302.897183 131.328 
L 301.120828 131.328 
L 299.344473 131.328 
L 297.568118 131.328 
L 295.791763 131.328 
L 294.015408 131.328 
L 292.239053 131.328 
L 290.462698 131.328 
L 288.686343 131.009697 
L 286.909988 131.009697 
L 285.133633 131.328 
L 283.357278 131.328 
L 281.580923 131.328 
L 279.804568 131.328 
L 278.028213 131.328 
L 276.251858 131.328 
L 274.475503 131.328 
L 272.699148 131.328 
L 270.922793 131.328 
L 269.146438 111.06272 
L 267.370083 111.06272 
L 265.593728 131.328 
L 263.817373 131.328 
L 262.041018 131.328 
L 260.264663 131.328 
L 258.488308 67.985738 
L 256.711953 25.014857 
L 254.935598 25.014857 
L 253.159243 25.120958 
L 251.382888 25.120958 
L 249.606533 25.014857 
L 247.830178 25.757564 
L 246.053822 74.563997 
L 244.277467 113.927446 
L 242.501112 131.328 
L 240.724757 131.328 
L 238.948402 114.033547 
L 237.172047 74.882299 
L 235.395692 26.288068 
L 233.619337 25.227059 
L 231.842982 26.818573 
L 230.066627 26.924674 
L 228.290272 25.651463 
L 226.513917 26.606371 
L 224.737562 26.606371 
L 222.961207 131.328 
L 221.184852 131.328 
L 219.408497 131.328 
L 217.632142 131.328 
L 215.855787 131.328 
L 214.079432 131.328 
L 212.303077 131.328 
L 210.526722 131.328 
L 208.750367 131.328 
L 206.974012 131.328 
L 205.197657 131.328 
L 203.421302 131.328 
L 201.644947 131.328 
L 199.868592 131.328 
L 198.092237 131.328 
L 196.315882 131.328 
L 194.539527 131.328 
L 192.763172 131.328 
L 190.986817 131.328 
L 189.210462 131.328 
L 187.434107 131.328 
L 185.657751 131.328 
L 183.881396 131.328 
L 182.105041 131.328 
L 180.328686 131.328 
L 178.552331 131.328 
L 176.775976 95.571983 
L 174.999621 25.227059 
L 173.223266 25.014857 
L 171.446911 25.014857 
L 169.670556 25.014857 
L 167.894201 25.014857 
L 166.117846 25.227059 
L 164.341491 25.969766 
L 162.565136 77.21652 
L 160.788781 131.328 
L 159.012426 131.328 
L 157.236071 77.004318 
L 155.459716 25.014857 
L 153.683361 25.014857 
L 151.907006 25.014857 
L 150.130651 25.014857 
L 148.354296 25.014857 
L 146.577941 25.120958 
L 144.801586 91.009642 
L 143.025231 131.328 
L 141.248876 131.328 
L 139.472521 91.434046 
L 137.696166 83.052072 
L 135.919811 30.95651 
L 134.143456 30.95651 
L 132.367101 26.394169 
L 130.590746 40.399494 
L 128.814391 41.036099 
L 127.038036 25.863665 
L 125.26168 25.863665 
L 123.485325 131.328 
L 121.70897 131.328 
L 119.932615 131.328 
L 118.15626 131.328 
L 116.379905 131.328 
L 114.60355 131.328 
L 112.827195 131.328 
L 111.05084 131.328 
L 109.274485 131.328 
L 107.49813 131.328 
L 105.721775 131.328 
L 103.94542 131.328 
L 102.169065 131.328 
L 100.39271 131.328 
L 98.616355 131.328 
L 96.84 131.328 
z
" clip-path="url(#p0591c0a398)" style="fill: #40c0e0"/>
   </g>
   <g id="matplotlib.axis_1">
    <g id="xtick_1">
     <g id="line2d_1">
      <defs>
       <path id="mbf0040807a" d="M 0 0 
L 0 3.5 
" style="stroke: #000000; stroke-width: 0.8"/>
      </defs>
      <g>
       <use xlink:href="#mbf0040807a" x="96.84" y="131.328" style="stroke: #000000; stroke-width: 0.8"/>
      </g>
     </g>
     <g id="text_1">
      <!-- 0 -->
      <g transform="translate(93.65875 145.926437)scale(0.1 -0.1)">
       <defs>
        <path id="DejaVuSans-30" d="M 2034 4250 
Q 1547 4250 1301 3770 
Q 1056 3291 1056 2328 
Q 1056 1369 1301 889 
Q 1547 409 2034 409 
Q 2525 409 2770 889 
Q 3016 1369 3016 2328 
Q 3016 3291 2770 3770 
Q 2525 4250 2034 4250 
z
M 2034 4750 
Q 2819 4750 3233 4129 
Q 3647 3509 3647 2328 
Q 3647 1150 3233 529 
Q 2819 -91 2034 -91 
Q 1250 -91 836 529 
Q 422 1150 422 2328 
Q 422 3509 836 4129 
Q 1250 4750 2034 4750 
z
" transform="scale(0.015625)"/>
       </defs>
       <use xlink:href="#DejaVuSans-30"/>
      </g>
     </g>
    </g>
    <g id="xtick_2">
     <g id="line2d_2">
      <g>
       <use xlink:href="#mbf0040807a" x="185.657751" y="131.328" style="stroke: #000000; stroke-width: 0.8"/>
      </g>
     </g>
     <g id="text_2">
      <!-- 50 -->
      <g transform="translate(179.295251 145.926437)scale(0.1 -0.1)">
       <defs>
        <path id="DejaVuSans-35" d="M 691 4666 
L 3169 4666 
L 3169 4134 
L 1269 4134 
L 1269 2991 
Q 1406 3038 1543 3061 
Q 1681 3084 1819 3084 
Q 2600 3084 3056 2656 
Q 3513 2228 3513 1497 
Q 3513 744 3044 326 
Q 2575 -91 1722 -91 
Q 1428 -91 1123 -41 
Q 819 9 494 109 
L 494 744 
Q 775 591 1075 516 
Q 1375 441 1709 441 
Q 2250 441 2565 725 
Q 2881 1009 2881 1497 
Q 2881 1984 2565 2268 
Q 2250 2553 1709 2553 
Q 1456 2553 1204 2497 
Q 953 2441 691 2322 
L 691 4666 
z
" transform="scale(0.015625)"/>
       </defs>
       <use xlink:href="#DejaVuSans-35"/>
       <use xlink:href="#DejaVuSans-30" x="63.623047"/>
      </g>
     </g>
    </g>
    <g id="xtick_3">
     <g id="line2d_3">
      <g>
       <use xlink:href="#mbf0040807a" x="274.475503" y="131.328" style="stroke: #000000; stroke-width: 0.8"/>
      </g>
     </g>
     <g id="text_3">
      <!-- 100 -->
      <g transform="translate(264.931753 145.926437)scale(0.1 -0.1)">
       <defs>
        <path id="DejaVuSans-31" d="M 794 531 
L 1825 531 
L 1825 4091 
L 703 3866 
L 703 4441 
L 1819 4666 
L 2450 4666 
L 2450 531 
L 3481 531 
L 3481 0 
L 794 0 
L 794 531 
z
" transform="scale(0.015625)"/>
       </defs>
       <use xlink:href="#DejaVuSans-31"/>
       <use xlink:href="#DejaVuSans-30" x="63.623047"/>
       <use xlink:href="#DejaVuSans-30" x="127.246094"/>
      </g>
     </g>
    </g>
    <g id="xtick_4">
     <g id="line2d_4">
      <g>
       <use xlink:href="#mbf0040807a" x="363.293254" y="131.328" style="stroke: #000000; stroke-width: 0.8"/>
      </g>
     </g>
     <g id="text_4">
      <!-- 150 -->
      <g transform="translate(353.749504 145.926437)scale(0.1 -0.1)">
       <use xlink:href="#DejaVuSans-31"/>
       <use xlink:href="#DejaVuSans-35" x="63.623047"/>
       <use xlink:href="#DejaVuSans-30" x="127.246094"/>
      </g>
     </g>
    </g>
    <g id="xtick_5">
     <g id="line2d_5">
      <g>
       <use xlink:href="#mbf0040807a" x="452.111006" y="131.328" style="stroke: #000000; stroke-width: 0.8"/>
      </g>
     </g>
     <g id="text_5">
      <!-- 200 -->
      <g transform="translate(442.567256 145.926437)scale(0.1 -0.1)">
       <defs>
        <path id="DejaVuSans-32" d="M 1228 531 
L 3431 531 
L 3431 0 
L 469 0 
L 469 531 
Q 828 903 1448 1529 
Q 2069 2156 2228 2338 
Q 2531 2678 2651 2914 
Q 2772 3150 2772 3378 
Q 2772 3750 2511 3984 
Q 2250 4219 1831 4219 
Q 1534 4219 1204 4116 
Q 875 4013 500 3803 
L 500 4441 
Q 881 4594 1212 4672 
Q 1544 4750 1819 4750 
Q 2544 4750 2975 4387 
Q 3406 4025 3406 3419 
Q 3406 3131 3298 2873 
Q 3191 2616 2906 2266 
Q 2828 2175 2409 1742 
Q 1991 1309 1228 531 
z
" transform="scale(0.015625)"/>
       </defs>
       <use xlink:href="#DejaVuSans-32"/>
       <use xlink:href="#DejaVuSans-30" x="63.623047"/>
       <use xlink:href="#DejaVuSans-30" x="127.246094"/>
      </g>
     </g>
    </g>
    <g id="xtick_6">
     <g id="line2d_6">
      <g>
       <use xlink:href="#mbf0040807a" x="540.928757" y="131.328" style="stroke: #000000; stroke-width: 0.8"/>
      </g>
     </g>
     <g id="text_6">
      <!-- 250 -->
      <g transform="translate(531.385007 145.926437)scale(0.1 -0.1)">
       <use xlink:href="#DejaVuSans-32"/>
       <use xlink:href="#DejaVuSans-35" x="63.623047"/>
       <use xlink:href="#DejaVuSans-30" x="127.246094"/>
      </g>
     </g>
    </g>
    <g id="xtick_7">
     <g id="line2d_7">
      <g>
       <use xlink:href="#mbf0040807a" x="629.746509" y="131.328" style="stroke: #000000; stroke-width: 0.8"/>
      </g>
     </g>
     <g id="text_7">
      <!-- 300 -->
      <g transform="translate(620.202759 145.926437)scale(0.1 -0.1)">
       <defs>
        <path id="DejaVuSans-33" d="M 2597 2516 
Q 3050 2419 3304 2112 
Q 3559 1806 3559 1356 
Q 3559 666 3084 287 
Q 2609 -91 1734 -91 
Q 1441 -91 1130 -33 
Q 819 25 488 141 
L 488 750 
Q 750 597 1062 519 
Q 1375 441 1716 441 
Q 2309 441 2620 675 
Q 2931 909 2931 1356 
Q 2931 1769 2642 2001 
Q 2353 2234 1838 2234 
L 1294 2234 
L 1294 2753 
L 1863 2753 
Q 2328 2753 2575 2939 
Q 2822 3125 2822 3475 
Q 2822 3834 2567 4026 
Q 2313 4219 1838 4219 
Q 1578 4219 1281 4162 
Q 984 4106 628 3988 
L 628 4550 
Q 988 4650 1302 4700 
Q 1616 4750 1894 4750 
Q 2613 4750 3031 4423 
Q 3450 4097 3450 3541 
Q 3450 3153 3228 2886 
Q 3006 2619 2597 2516 
z
" transform="scale(0.015625)"/>
       </defs>
       <use xlink:href="#DejaVuSans-33"/>
       <use xlink:href="#DejaVuSans-30" x="63.623047"/>
       <use xlink:href="#DejaVuSans-30" x="127.246094"/>
      </g>
     </g>
    </g>
    <g id="text_8">
     <!-- Residue Index -->
     <g transform="translate(351.421109 161.884094)scale(0.13 -0.13)">
      <defs>
       <path id="DejaVuSans-52" d="M 2841 2188 
Q 3044 2119 3236 1894 
Q 3428 1669 3622 1275 
L 4263 0 
L 3584 0 
L 2988 1197 
Q 2756 1666 2539 1819 
Q 2322 1972 1947 1972 
L 1259 1972 
L 1259 0 
L 628 0 
L 628 4666 
L 2053 4666 
Q 2853 4666 3247 4331 
Q 3641 3997 3641 3322 
Q 3641 2881 3436 2590 
Q 3231 2300 2841 2188 
z
M 1259 4147 
L 1259 2491 
L 2053 2491 
Q 2509 2491 2742 2702 
Q 2975 2913 2975 3322 
Q 2975 3731 2742 3939 
Q 2509 4147 2053 4147 
L 1259 4147 
z
" transform="scale(0.015625)"/>
       <path id="DejaVuSans-65" d="M 3597 1894 
L 3597 1613 
L 953 1613 
Q 991 1019 1311 708 
Q 1631 397 2203 397 
Q 2534 397 2845 478 
Q 3156 559 3463 722 
L 3463 178 
Q 3153 47 2828 -22 
Q 2503 -91 2169 -91 
Q 1331 -91 842 396 
Q 353 884 353 1716 
Q 353 2575 817 3079 
Q 1281 3584 2069 3584 
Q 2775 3584 3186 3129 
Q 3597 2675 3597 1894 
z
M 3022 2063 
Q 3016 2534 2758 2815 
Q 2500 3097 2075 3097 
Q 1594 3097 1305 2825 
Q 1016 2553 972 2059 
L 3022 2063 
z
" transform="scale(0.015625)"/>
       <path id="DejaVuSans-73" d="M 2834 3397 
L 2834 2853 
Q 2591 2978 2328 3040 
Q 2066 3103 1784 3103 
Q 1356 3103 1142 2972 
Q 928 2841 928 2578 
Q 928 2378 1081 2264 
Q 1234 2150 1697 2047 
L 1894 2003 
Q 2506 1872 2764 1633 
Q 3022 1394 3022 966 
Q 3022 478 2636 193 
Q 2250 -91 1575 -91 
Q 1294 -91 989 -36 
Q 684 19 347 128 
L 347 722 
Q 666 556 975 473 
Q 1284 391 1588 391 
Q 1994 391 2212 530 
Q 2431 669 2431 922 
Q 2431 1156 2273 1281 
Q 2116 1406 1581 1522 
L 1381 1569 
Q 847 1681 609 1914 
Q 372 2147 372 2553 
Q 372 3047 722 3315 
Q 1072 3584 1716 3584 
Q 2034 3584 2315 3537 
Q 2597 3491 2834 3397 
z
" transform="scale(0.015625)"/>
       <path id="DejaVuSans-69" d="M 603 3500 
L 1178 3500 
L 1178 0 
L 603 0 
L 603 3500 
z
M 603 4863 
L 1178 4863 
L 1178 4134 
L 603 4134 
L 603 4863 
z
" transform="scale(0.015625)"/>
       <path id="DejaVuSans-64" d="M 2906 2969 
L 2906 4863 
L 3481 4863 
L 3481 0 
L 2906 0 
L 2906 525 
Q 2725 213 2448 61 
Q 2172 -91 1784 -91 
Q 1150 -91 751 415 
Q 353 922 353 1747 
Q 353 2572 751 3078 
Q 1150 3584 1784 3584 
Q 2172 3584 2448 3432 
Q 2725 3281 2906 2969 
z
M 947 1747 
Q 947 1113 1208 752 
Q 1469 391 1925 391 
Q 2381 391 2643 752 
Q 2906 1113 2906 1747 
Q 2906 2381 2643 2742 
Q 2381 3103 1925 3103 
Q 1469 3103 1208 2742 
Q 947 2381 947 1747 
z
" transform="scale(0.015625)"/>
       <path id="DejaVuSans-75" d="M 544 1381 
L 544 3500 
L 1119 3500 
L 1119 1403 
Q 1119 906 1312 657 
Q 1506 409 1894 409 
Q 2359 409 2629 706 
Q 2900 1003 2900 1516 
L 2900 3500 
L 3475 3500 
L 3475 0 
L 2900 0 
L 2900 538 
Q 2691 219 2414 64 
Q 2138 -91 1772 -91 
Q 1169 -91 856 284 
Q 544 659 544 1381 
z
M 1991 3584 
L 1991 3584 
z
" transform="scale(0.015625)"/>
       <path id="DejaVuSans-20" transform="scale(0.015625)"/>
       <path id="DejaVuSans-49" d="M 628 4666 
L 1259 4666 
L 1259 0 
L 628 0 
L 628 4666 
z
" transform="scale(0.015625)"/>
       <path id="DejaVuSans-6e" d="M 3513 2113 
L 3513 0 
L 2938 0 
L 2938 2094 
Q 2938 2591 2744 2837 
Q 2550 3084 2163 3084 
Q 1697 3084 1428 2787 
Q 1159 2491 1159 1978 
L 1159 0 
L 581 0 
L 581 3500 
L 1159 3500 
L 1159 2956 
Q 1366 3272 1645 3428 
Q 1925 3584 2291 3584 
Q 2894 3584 3203 3211 
Q 3513 2838 3513 2113 
z
" transform="scale(0.015625)"/>
       <path id="DejaVuSans-78" d="M 3513 3500 
L 2247 1797 
L 3578 0 
L 2900 0 
L 1881 1375 
L 863 0 
L 184 0 
L 1544 1831 
L 300 3500 
L 978 3500 
L 1906 2253 
L 2834 3500 
L 3513 3500 
z
" transform="scale(0.015625)"/>
      </defs>
      <use xlink:href="#DejaVuSans-52"/>
      <use xlink:href="#DejaVuSans-65" x="64.982422"/>
      <use xlink:href="#DejaVuSans-73" x="126.505859"/>
      <use xlink:href="#DejaVuSans-69" x="178.605469"/>
      <use xlink:href="#DejaVuSans-64" x="206.388672"/>
      <use xlink:href="#DejaVuSans-75" x="269.865234"/>
      <use xlink:href="#DejaVuSans-65" x="333.244141"/>
      <use xlink:href="#DejaVuSans-20" x="394.767578"/>
      <use xlink:href="#DejaVuSans-49" x="426.554688"/>
      <use xlink:href="#DejaVuSans-6e" x="456.046875"/>
      <use xlink:href="#DejaVuSans-64" x="519.425781"/>
      <use xlink:href="#DejaVuSans-65" x="582.902344"/>
      <use xlink:href="#DejaVuSans-78" x="642.675781"/>
     </g>
    </g>
   </g>
   <g id="matplotlib.axis_2">
    <g id="ytick_1">
     <g id="line2d_8">
      <defs>
       <path id="m611af700d1" d="M 0 0 
L -3.5 0 
" style="stroke: #000000; stroke-width: 0.8"/>
      </defs>
      <g>
       <use xlink:href="#m611af700d1" x="96.84" y="131.328" style="stroke: #000000; stroke-width: 0.8"/>
      </g>
     </g>
     <g id="text_9">
      <!-- 0 -->
      <g transform="translate(83.4775 135.127219)scale(0.1 -0.1)">
       <use xlink:href="#DejaVuSans-30"/>
      </g>
     </g>
    </g>
    <g id="ytick_2">
     <g id="line2d_9">
      <g>
       <use xlink:href="#m611af700d1" x="96.84" y="104.749714" style="stroke: #000000; stroke-width: 0.8"/>
      </g>
     </g>
     <g id="text_10">
      <!-- 25 -->
      <g transform="translate(77.115 108.548933)scale(0.1 -0.1)">
       <use xlink:href="#DejaVuSans-32"/>
       <use xlink:href="#DejaVuSans-35" x="63.623047"/>
      </g>
     </g>
    </g>
    <g id="ytick_3">
     <g id="line2d_10">
      <g>
       <use xlink:href="#m611af700d1" x="96.84" y="78.171429" style="stroke: #000000; stroke-width: 0.8"/>
      </g>
     </g>
     <g id="text_11">
      <!-- 50 -->
      <g transform="translate(77.115 81.970647)scale(0.1 -0.1)">
       <use xlink:href="#DejaVuSans-35"/>
       <use xlink:href="#DejaVuSans-30" x="63.623047"/>
      </g>
     </g>
    </g>
    <g id="ytick_4">
     <g id="line2d_11">
      <g>
       <use xlink:href="#m611af700d1" x="96.84" y="51.593143" style="stroke: #000000; stroke-width: 0.8"/>
      </g>
     </g>
     <g id="text_12">
      <!-- 75 -->
      <g transform="translate(77.115 55.392362)scale(0.1 -0.1)">
       <defs>
        <path id="DejaVuSans-37" d="M 525 4666 
L 3525 4666 
L 3525 4397 
L 1831 0 
L 1172 0 
L 2766 4134 
L 525 4134 
L 525 4666 
z
" transform="scale(0.015625)"/>
       </defs>
       <use xlink:href="#DejaVuSans-37"/>
       <use xlink:href="#DejaVuSans-35" x="63.623047"/>
      </g>
     </g>
    </g>
    <g id="ytick_5">
     <g id="line2d_12">
      <g>
       <use xlink:href="#m611af700d1" x="96.84" y="25.014857" style="stroke: #000000; stroke-width: 0.8"/>
      </g>
     </g>
     <g id="text_13">
      <!-- 100 -->
      <g transform="translate(70.7525 28.814076)scale(0.1 -0.1)">
       <use xlink:href="#DejaVuSans-31"/>
       <use xlink:href="#DejaVuSans-30" x="63.623047"/>
       <use xlink:href="#DejaVuSans-30" x="127.246094"/>
      </g>
     </g>
    </g>
    <g id="text_14">
     <!-- Res. % SSE -->
     <g transform="translate(64.048906 111.856725)rotate(-90)scale(0.13 -0.13)">
      <defs>
       <path id="DejaVuSans-2e" d="M 684 794 
L 1344 794 
L 1344 0 
L 684 0 
L 684 794 
z
" transform="scale(0.015625)"/>
       <path id="DejaVuSans-25" d="M 4653 2053 
Q 4381 2053 4226 1822 
Q 4072 1591 4072 1178 
Q 4072 772 4226 539 
Q 4381 306 4653 306 
Q 4919 306 5073 539 
Q 5228 772 5228 1178 
Q 5228 1588 5073 1820 
Q 4919 2053 4653 2053 
z
M 4653 2450 
Q 5147 2450 5437 2106 
Q 5728 1763 5728 1178 
Q 5728 594 5436 251 
Q 5144 -91 4653 -91 
Q 4153 -91 3862 251 
Q 3572 594 3572 1178 
Q 3572 1766 3864 2108 
Q 4156 2450 4653 2450 
z
M 1428 4353 
Q 1159 4353 1004 4120 
Q 850 3888 850 3481 
Q 850 3069 1003 2837 
Q 1156 2606 1428 2606 
Q 1700 2606 1854 2837 
Q 2009 3069 2009 3481 
Q 2009 3884 1853 4118 
Q 1697 4353 1428 4353 
z
M 4250 4750 
L 4750 4750 
L 1831 -91 
L 1331 -91 
L 4250 4750 
z
M 1428 4750 
Q 1922 4750 2215 4408 
Q 2509 4066 2509 3481 
Q 2509 2891 2217 2550 
Q 1925 2209 1428 2209 
Q 931 2209 642 2551 
Q 353 2894 353 3481 
Q 353 4063 643 4406 
Q 934 4750 1428 4750 
z
" transform="scale(0.015625)"/>
       <path id="DejaVuSans-53" d="M 3425 4513 
L 3425 3897 
Q 3066 4069 2747 4153 
Q 2428 4238 2131 4238 
Q 1616 4238 1336 4038 
Q 1056 3838 1056 3469 
Q 1056 3159 1242 3001 
Q 1428 2844 1947 2747 
L 2328 2669 
Q 3034 2534 3370 2195 
Q 3706 1856 3706 1288 
Q 3706 609 3251 259 
Q 2797 -91 1919 -91 
Q 1588 -91 1214 -16 
Q 841 59 441 206 
L 441 856 
Q 825 641 1194 531 
Q 1563 422 1919 422 
Q 2459 422 2753 634 
Q 3047 847 3047 1241 
Q 3047 1584 2836 1778 
Q 2625 1972 2144 2069 
L 1759 2144 
Q 1053 2284 737 2584 
Q 422 2884 422 3419 
Q 422 4038 858 4394 
Q 1294 4750 2059 4750 
Q 2388 4750 2728 4690 
Q 3069 4631 3425 4513 
z
" transform="scale(0.015625)"/>
       <path id="DejaVuSans-45" d="M 628 4666 
L 3578 4666 
L 3578 4134 
L 1259 4134 
L 1259 2753 
L 3481 2753 
L 3481 2222 
L 1259 2222 
L 1259 531 
L 3634 531 
L 3634 0 
L 628 0 
L 628 4666 
z
" transform="scale(0.015625)"/>
      </defs>
      <use xlink:href="#DejaVuSans-52"/>
      <use xlink:href="#DejaVuSans-65" x="64.982422"/>
      <use xlink:href="#DejaVuSans-73" x="126.505859"/>
      <use xlink:href="#DejaVuSans-2e" x="178.605469"/>
      <use xlink:href="#DejaVuSans-20" x="210.392578"/>
      <use xlink:href="#DejaVuSans-25" x="242.179688"/>
      <use xlink:href="#DejaVuSans-20" x="337.199219"/>
      <use xlink:href="#DejaVuSans-53" x="368.986328"/>
      <use xlink:href="#DejaVuSans-53" x="432.462891"/>
      <use xlink:href="#DejaVuSans-45" x="495.939453"/>
     </g>
    </g>
   </g>
   <g id="patch_3">
    <path d="M 96.84 131.328 
L 96.84 19.6992 
" style="fill: none; stroke: #000000; stroke-width: 0.8; stroke-linejoin: miter; stroke-linecap: square"/>
   </g>
   <g id="patch_4">
    <path d="M 697.248 131.328 
L 697.248 19.6992 
" style="fill: none; stroke: #000000; stroke-width: 0.8; stroke-linejoin: miter; stroke-linecap: square"/>
   </g>
   <g id="patch_5">
    <path d="M 96.84 131.328 
L 697.248 131.328 
" style="fill: none; stroke: #000000; stroke-width: 0.8; stroke-linejoin: miter; stroke-linecap: square"/>
   </g>
   <g id="patch_6">
    <path d="M 96.84 19.6992 
L 697.248 19.6992 
" style="fill: none; stroke: #000000; stroke-width: 0.8; stroke-linejoin: miter; stroke-linecap: square"/>
   </g>
  </g>
 </g>
 <defs>
  <clipPath id="p0591c0a398">
   <rect x="96.84" y="19.6992" width="600.408" height="111.6288"/>
  </clipPath>
 </defs>
</svg>
